#N canvas 74 37 1366 841 10;
#X obj 987 27 cnv 15 300 500 empty empty Canvas-Pan-parametrization
20 12 0 14 -233017 -66577 0;
#X obj 58 83 cnv 15 300 300 empty empty Canvas-Simple-Osc-Phased 20
12 0 14 -233017 -66577 0;
#X obj 623 165 cnv 15 320 170 empty empty Canvas-Env 20 12 0 14 -233017
-66577 0;
#X obj 519 551 cnv 15 300 200 empty empty Canvas-Simple-Osc-unphased
20 12 0 14 -233017 -66577 0;
#X obj 1086 53 bng 15 250 50 0 empty empty empty 17 7 0 10 -262144
-1 -1;
#X obj 929 540 Pan-controller;
#X obj 1022 269 + 1;
#X obj 1022 290 / 2;
#X floatatom 1022 356 5 0 0 0 - - -;
#X obj 441 222 osc~ 95;
#X obj 385 181 phasor~ 95;
#X obj 386 222 lop~;
#X msg 407 201 200;
#X obj 441 242 *~ 0.4;
#X msg 441 203 93;
#X obj 1156 200 metro 25;
#X obj 961 650 dac~;
#X floatatom 116 231 5 0 0 0 - - -;
#X obj 149 273 *~;
#X obj 134 297 +~;
#X floatatom 83 272 5 0 0 0 - - -;
#X obj 164 399 *~;
#X obj 248 155 line~;
#X msg 267 135 0 100;
#X obj 134 318 osc~;
#X floatatom 167 250 5 0 0 0 - - -;
#X obj 116 250 osc~ 46;
#X msg 167 228 82;
#X msg 83 251 95;
#X obj 116 127 random 25;
#X obj 116 148 * 2;
#X obj 116 108 bng 15 250 50 0 empty empty empty 17 7 0 10 -262144
-1 -1;
#X floatatom 116 169 5 0 0 0 - - -;
#X obj 116 209 line, f 18;
#X msg 116 188 \$1 500;
#X msg 248 113 0.4 100;
#X msg 72 210 46;
#X obj 255 266 phasor~ 200;
#X floatatom 261 244 5 0 0 0 - - -;
#X obj 255 291 *~;
#X msg 329 267 0.02;
#X obj 1022 312 rnorm;
#X obj 1022 228 osc~ 1;
#X obj 1135 254 rnorm;
#X msg 1153 297 0.1;
#X msg 1135 231 0.1;
#X msg 1248 231 0.05;
#X obj 441 350 *~;
#X obj 456 327 line~;
#X msg 462 305 0 100;
#X msg 456 284 0.4 100;
#X obj 426 408 +~;
#X obj 441 264 *~ 0.71;
#X obj 641 288 line;
#X obj 617 355 *~;
#N canvas 625 89 696 503 (subpatch) 0;
#X array bassDrop-env 100 float 1;
#A 0 -0.0274262 0.0189873 0.50211 0.622363 0.677216 0.784811 0.940929
0.972575 1 1.00844 0.5 1.01055 1.01055 1.01055 0.974155 0.952287 0.92843
0.898609 0.872765 0.459249 0.33599 0.330026 0.32605 0.32605 0.330026
0.334002 0.377739 0.421476 0.457261 0.518891 0.64215 0.996024 1.02982
1.0338 1.0338 0.8 1.0159 0.992048 0.976143 0.803183 0.739565 0.4175
0.499004 0.536777 0.506956 0.467195 0.652084 0.721666 0.77932 0.815105
0.858842 0.928429 0.946322 0.952286 0.960238 0.962226 0.962226 0.954274
0.928429 0.888668 0.848907 0.787278 0.596424 0.564616 0.532807 0.506962
0.497022 0.465213 0.439368 0.399607 0.353882 0.324061 0.298216 0.270384
0.230623 0.208754 0.19285 0.176945 0.168993 0.155077 0.145136 0.137184
0.13122 0.127244 0.119292 0.115316 0.113328 0.109351 0.107363 0.103387
0.093447 0.0854948 0.0795306 0.0715784 0.0656142 0.0616381 0.055674
0.0457337 0.0258528 0;
#X coords 0 1 100 0 99 20 1 0 0;
#X restore 680 285 graph;
#X obj 617 378 env~;
#X floatatom 617 402 5 0 0 0 - - -;
#X msg 766 266 0;
#X obj 943 597 freeverb~;
#X obj 641 309 tabread bassDrop-env;
#X obj 512 66 bng 15 250 50 0 empty empty empty 17 7 0 10 -262144 -1
-1;
#X msg 255 223 200;
#X obj 164 419 env~;
#X floatatom 164 439 5 0 0 0 - - -;
#X obj 426 429 env~;
#X floatatom 426 450 5 0 0 0 - - -;
#X obj 511 44 t b b b;
#X obj 512 0 inlet;
#X obj 511 21 bng 15 250 50 0 empty empty empty 17 7 0 10 -262144 -1
-1;
#X obj 641 220 rnorm;
#X msg 641 264 99 \$1;
#X msg 641 200 2000;
#X msg 730 200 1000;
#X obj 667 354 *~;
#X obj 667 377 env~;
#X floatatom 667 401 5 0 0 0 - - -;
#X obj 1022 250 snapshot~;
#X obj 785 353 *~;
#X obj 800 289 line;
#X obj 800 310 tabread bassDrop-env;
#X obj 800 221 rnorm;
#X msg 800 265 99 \$1;
#X msg 800 201 2000;
#X msg 889 200 1000;
#X obj 803 64 bng 15 250 50 0 empty empty empty 17 7 0 10 -262144 -1
-1;
#X obj 785 378 env~;
#X floatatom 785 402 5 0 0 0 - - -;
#X obj 68 516 cnv 15 300 300 empty empty Canvas-Simple-Osc-direct 20
12 0 14 -233017 -66577 0;
#X floatatom 136 693 5 0 0 0 - - -;
#X obj 169 736 *~;
#X obj 154 760 +~;
#X floatatom 103 735 5 0 0 0 - - -;
#X obj 154 781 osc~;
#X floatatom 187 713 5 0 0 0 - - -;
#X obj 136 713 osc~ 46;
#X msg 187 691 82;
#X msg 103 714 95;
#X obj 136 579 * 2;
#X obj 136 539 bng 15 250 50 0 empty empty empty 17 7 0 10 -262144
-1 -1;
#X floatatom 136 621 5 0 0 0 - - -;
#X obj 136 667 line, f 18;
#X msg 136 643 \$1 500;
#X msg 92 673 46;
#X obj 136 558 random 12;
#X obj 136 600 + 2;
#X obj 237 755 line~;
#X msg 237 713 0.4 100;
#X obj 217 790 *~;
#X obj 537 607 osc~ 48;
#X obj 592 607 osc~ 82;
#X obj 563 670 env~;
#X floatatom 563 689 5 0 0 0 - - -;
#X obj 563 648 +~;
#X obj 537 628 /~ 2;
#X obj 592 628 /~ 2;
#X obj 648 635 line~;
#X msg 667 615 0 100;
#X obj 627 666 *~;
#X msg 648 595 1 100;
#X obj 266 688 delay \$1;
#X msg 256 735 0 1200;
#X obj 1022 158 rnorm;
#X msg 1022 139 1;
#X msg 1135 139 0.3;
#X floatatom 1022 205 5 0 0 0 - - -;
#X obj 1022 116 metro 130;
#N canvas 210 353 899 558 limiteur 0;
#X obj 198 62 inlet;
#X obj 199 264 outlet;
#X floatatom 198 84 5 0 0 0 - - -;
#X floatatom 199 241 5 0 0 0 - - -;
#X obj 198 104 moses 0.2;
#X obj 249 129 moses 0.8;
#X msg 138 34 0.81;
#X msg 288 164 0.8;
#X msg 137 13 0.9;
#X msg 139 61 0.12;
#X msg 199 191 0.2;
#X msg 281 59 0.9;
#X msg 280 82 0.5;
#X text 379 47 limit variation;
#X connect 0 0 2 0;
#X connect 2 0 4 0;
#X connect 3 0 1 0;
#X connect 4 0 10 0;
#X connect 4 1 5 0;
#X connect 5 0 3 0;
#X connect 5 1 7 0;
#X connect 6 0 4 0;
#X connect 7 0 3 0;
#X connect 8 0 4 0;
#X connect 9 0 4 0;
#X connect 10 0 3 0;
#X connect 12 0 4 0;
#X restore 1022 378 pd limiteur;
#X obj 1042 419 scaling;
#X obj 806 146 bng 15 250 50 0 empty empty empty 17 7 0 10 -262144
-1 -1;
#X obj 800 181 delay 800;
#X connect 4 0 15 0;
#X connect 4 0 46 0;
#X connect 4 0 126 0;
#X connect 4 0 124 0;
#X connect 5 0 16 0;
#X connect 5 1 16 1;
#X connect 6 0 7 0;
#X connect 7 0 41 0;
#X connect 8 0 127 0;
#X connect 8 0 128 0;
#X connect 9 0 13 0;
#X connect 10 0 11 0;
#X connect 11 0 52 0;
#X connect 12 0 11 1;
#X connect 13 0 52 0;
#X connect 14 0 9 0;
#X connect 15 0 77 0;
#X connect 15 0 45 0;
#X connect 17 0 26 0;
#X connect 18 0 19 1;
#X connect 19 0 24 0;
#X connect 20 0 19 0;
#X connect 21 0 63 0;
#X connect 21 0 51 0;
#X connect 22 0 21 1;
#X connect 23 0 22 0;
#X connect 24 0 21 0;
#X connect 25 0 18 1;
#X connect 26 0 18 0;
#X connect 27 0 25 0;
#X connect 28 0 20 0;
#X connect 29 0 30 0;
#X connect 30 0 32 0;
#X connect 31 0 29 0;
#X connect 31 0 36 0;
#X connect 31 0 27 0;
#X connect 31 0 28 0;
#X connect 32 0 34 0;
#X connect 33 0 17 0;
#X connect 34 0 33 0;
#X connect 35 0 22 0;
#X connect 36 0 26 0;
#X connect 37 0 39 0;
#X connect 38 0 37 0;
#X connect 39 0 21 0;
#X connect 40 0 39 1;
#X connect 41 0 8 0;
#X connect 42 0 77 0;
#X connect 43 0 41 1;
#X connect 44 0 41 1;
#X connect 45 0 43 0;
#X connect 46 0 43 1;
#X connect 47 0 51 1;
#X connect 48 0 47 1;
#X connect 49 0 48 0;
#X connect 50 0 48 0;
#X connect 51 0 65 0;
#X connect 51 0 54 0;
#X connect 52 0 47 0;
#X connect 53 0 60 0;
#X connect 54 0 5 0;
#X connect 54 0 56 0;
#X connect 56 0 57 0;
#X connect 58 0 53 0;
#X connect 58 0 79 0;
#X connect 60 0 54 1;
#X connect 60 0 74 1;
#X connect 61 0 72 0;
#X connect 61 0 14 0;
#X connect 61 0 62 0;
#X connect 61 0 31 0;
#X connect 61 0 35 0;
#X connect 61 0 50 0;
#X connect 61 0 99 0;
#X connect 61 0 130 0;
#X connect 62 0 37 0;
#X connect 63 0 64 0;
#X connect 65 0 66 0;
#X connect 67 0 61 0;
#X connect 67 2 85 0;
#X connect 68 0 69 0;
#X connect 69 0 67 0;
#X connect 70 0 71 0;
#X connect 70 0 120 0;
#X connect 71 0 53 0;
#X connect 72 0 70 0;
#X connect 73 0 70 1;
#X connect 74 0 5 0;
#X connect 74 0 75 0;
#X connect 75 0 76 0;
#X connect 77 0 6 0;
#X connect 78 0 86 0;
#X connect 78 0 5 0;
#X connect 79 0 80 0;
#X connect 80 0 78 1;
#X connect 81 0 82 0;
#X connect 82 0 79 0;
#X connect 83 0 81 0;
#X connect 84 0 81 1;
#X connect 85 0 84 0;
#X connect 85 0 73 0;
#X connect 85 0 58 0;
#X connect 85 0 4 0;
#X connect 86 0 87 0;
#X connect 89 0 95 0;
#X connect 90 0 91 1;
#X connect 91 0 93 0;
#X connect 92 0 91 0;
#X connect 93 0 108 0;
#X connect 94 0 90 1;
#X connect 95 0 90 0;
#X connect 96 0 94 0;
#X connect 97 0 92 0;
#X connect 98 0 105 0;
#X connect 99 0 104 0;
#X connect 99 0 107 0;
#X connect 99 0 97 0;
#X connect 99 0 96 0;
#X connect 100 0 102 0;
#X connect 101 0 89 0;
#X connect 102 0 101 0;
#X connect 103 0 95 0;
#X connect 104 0 98 0;
#X connect 105 0 100 0;
#X connect 106 0 108 1;
#X connect 107 0 106 0;
#X connect 108 0 16 0;
#X connect 108 0 16 1;
#X connect 109 0 114 0;
#X connect 110 0 115 0;
#X connect 111 0 112 0;
#X connect 113 0 111 0;
#X connect 113 0 118 0;
#X connect 114 0 113 0;
#X connect 115 0 113 1;
#X connect 116 0 118 1;
#X connect 117 0 116 0;
#X connect 118 0 78 0;
#X connect 119 0 116 0;
#X connect 120 0 121 0;
#X connect 121 0 106 0;
#X connect 122 0 125 0;
#X connect 123 0 122 0;
#X connect 124 0 122 1;
#X connect 125 0 42 0;
#X connect 126 0 123 0;
#X connect 128 0 5 1;
#X connect 129 0 130 0;
#X connect 130 0 83 0;
#X coords 0 1682 2 1680 85 60 0;
