#N canvas 301 172 871 597 10;
#X obj 335 264 rnorm;
#X msg 484 109 0.2;
#X floatatom 332 307 5 0 0 0 - - -;
#X obj 363 62 metro 50;
#X obj 585 264 f;
#X obj 615 264 + 1;
#X obj 585 287 mod 100;
#X obj 514 413 tabwrite Z(t);
#N canvas 0 22 450 278 (subpatch) 0;
#X array Z(t) 100 float 5;
#A 0 0.59 0.446 0.628 0.702 0.824 0.82 0.904 0.876 1 1 0.97 0.844 0.788
0.894 0.816 0.912 0.876 1 0.856 0.75 0.718 0.744 0.846 0.894 0.834
0.798 0.878 0.822 0.684 0.654 0.82 0.634 0.83 0.928 0.824 0.958 0.792
0.686 0.882 1 1 1 1 0.994 1 0.848 0.874 0.696 0.576 0.714 0.662 0.606
0.468 0.294 0.3 0.106 0 0 0.072 0.25 0.282 0.188 0.382 0.262 0.09 0
0 0 0.156 0.008 0.174 0.194 0.282 0.466 0.278 0.11 0.042 0.126 0.134
0.068 0.18 0.056 0 0 0 0 0 0 0.17 0.046 0.012 0 0.046 0.19 0.642 0.658
0.592 0.748 0.726 0.668;
#X coords 0 1 100 0 200 140 1 0 0;
#X restore 655 102 graph;
#X text 146 10 Goal: Implement a random walk following a brownian motion
To do: From a starting value [0 \, 1] \, increment or decrement every
50ms \, according to a "random" fonction. Limit variation to a range
[0 and 1].;
#X obj 102 45 inlet;
#X obj 102 68 unpack \$1 \$2;
#X obj 362 42 bng 15 250 50 0 empty empty empty 17 7 0 10 -262144 -1
-1;
#X obj 261 339 f;
#X text 100 100 start;
#X floatatom 102 114 5 0 0 0 - - -;
#X floatatom 261 361 5 0 0 0 - - -;
#X obj 291 320 f;
#X obj 291 339 +;
#X floatatom 102 222 5 0 0 0 - - -;
#X obj 515 53 loadbang;
#X floatatom 335 238 5 0 0 0 - - -;
#X floatatom 417 237 5 0 0 0 - - -;
#X msg 439 94 0;
#X obj 363 100 t b b b;
#X obj 428 62 tgl 15 0 empty empty empty 17 7 0 10 -262144 -1 -1 1
1;
#X obj 363 81 spigot;
#X floatatom 141 114 5 0 0 0 - - -;
#X text 139 100 speed;
#X obj 261 383 moses 0;
#X obj 300 404 moses 1;
#X floatatom 296 427 5 0 0 0 - - -;
#X floatatom 288 454 5 0 0 0 - - -;
#X msg 261 426 0;
#X msg 339 426 1;
#X msg 193 80 0.4;
#X text 129 126 BM;
#X obj 266 485 outlet;
#X connect 0 0 2 0;
#X connect 1 0 22 0;
#X connect 2 0 17 0;
#X connect 3 0 26 0;
#X connect 4 0 5 0;
#X connect 4 0 6 0;
#X connect 5 0 4 1;
#X connect 6 0 7 1;
#X connect 10 0 11 0;
#X connect 11 0 15 0;
#X connect 11 1 27 0;
#X connect 12 0 3 0;
#X connect 13 0 18 0;
#X connect 13 0 16 0;
#X connect 15 0 19 0;
#X connect 16 0 29 0;
#X connect 17 0 18 0;
#X connect 18 0 13 1;
#X connect 19 0 21 0;
#X connect 20 0 23 0;
#X connect 20 0 1 0;
#X connect 20 0 25 0;
#X connect 20 0 12 0;
#X connect 21 0 0 0;
#X connect 22 0 0 1;
#X connect 23 0 21 0;
#X connect 24 1 13 0;
#X connect 24 1 4 0;
#X connect 24 2 19 0;
#X connect 25 0 26 1;
#X connect 26 0 24 0;
#X connect 27 0 22 0;
#X connect 29 0 33 0;
#X connect 29 1 30 0;
#X connect 30 0 31 0;
#X connect 30 1 34 0;
#X connect 31 0 32 0;
#X connect 32 0 7 0;
#X connect 32 0 19 0;
#X connect 32 0 37 0;
#X connect 33 0 32 0;
#X connect 34 0 32 0;
#X connect 35 0 27 0;
#X coords 0 -1 1 1 76 42 2 100 100;
