#N canvas 57 23 1383 855 10;
#N canvas 206 182 636 622 Infos.pd 0;
#X text 97 43 I did not found how to access at a particular position
in a file and to read a symbol. The solution seams to consist in running
across a table. I am currently wondering how to access at information
stored and If I have to process the DNA information before running
the Pd patch. That's poor in terms of interactivity but could be tricked
by playing with effect starting progressively. For example \, the genome
could be read at a whole \, then genes per genes since bases per bases.
All the different parameters which will generate audio could be processed
with R before being writed in a text file. Pd should import the information
sequentially.;
#X text 97 181 comment from 09/10/2019: Present state \, first. There
is currently a way to read base per base the DNA sequence. The audio
produced seams rather complex and could be fine tuned in order to produce
a nice hearing experience (I believe). In short \, I'm much more convince
right now than precedently by the outputed audio texture. I found a
way to read multiple information stored as a table (base per base right
now). This data structure is not optimal but will permit to add structure
(gene \, CDS \, rRNA) \, statistics from a sliding window \, and so
on. Going further: - I should implement a sort of markov chain in order
to change smoothly parameters such as delay \, reverb or even pitch....
- The second current way I could introduce musicality (harmony at least)
\, could be to play "song" when "X" structure start. For exemple \,
when codon start/stop appear \, a song could be played. - I should
find a way to print information on the GEM windows (and maybe some
representations).;
#X restore 707 22 pd Infos.pd;
#N canvas 632 600 742 278 LoadDNABases.pd 0;
#X obj 88 113 textfile;
#X msg 105 71 rewind;
#X obj 25 136 list append;
#X obj 25 198 list length;
#X floatatom 107 212 5 0 0 0 - - -;
#X obj 25 220 outlet;
#X obj 70 45 t b b b b;
#X obj 70 24 bng 15 250 50 0 empty empty empty 17 7 0 10 -262144 -1
-1;
#X obj 70 3 inlet;
#X obj 40 161 s ListDNABases;
#X msg 154 72 read HelixAspersa-JQ417196.1.InfosTable.tab cr;
#X msg 167 99 print;
#X connect 0 0 2 1;
#X connect 1 0 0 0;
#X connect 2 0 3 0;
#X connect 2 0 9 0;
#X connect 3 0 4 0;
#X connect 3 0 5 0;
#X connect 6 0 2 0;
#X connect 6 1 0 0;
#X connect 6 2 1 0;
#X connect 6 3 10 0;
#X connect 7 0 6 0;
#X connect 8 0 7 0;
#X connect 10 0 0 0;
#X connect 11 0 0 0;
#X restore 255 778 pd LoadDNABases.pd;
#N canvas 881 28 250 279 TravelingAcrossDNA.pd 0;
#X obj 49 139 + 1;
#X text 64 65 Start at position:;
#X floatatom 105 195 5 0 0 0 - - -;
#X obj 17 195 s DNAposition;
#X obj 17 139 i;
#X obj 14 238 select Rev For;
#X obj 17 114 bng 15 250 50 0 empty empty empty 17 7 0 10 -262144 -1
-1;
#X obj 17 91 r GeneralBang;
#X text 11 221 [in dev:reverse/forward reading];
#X text 16 10 Send Position on DNA molecules (5' -> 3' \, start at
1);
#X msg 32 66 0;
#X obj 32 43 inlet;
#X connect 0 0 4 1;
#X connect 4 0 0 0;
#X connect 4 0 3 0;
#X connect 4 0 2 0;
#X connect 6 0 4 0;
#X connect 7 0 6 0;
#X connect 10 0 4 1;
#X connect 11 0 10 0;
#X restore 46 168 pd TravelingAcrossDNA.pd;
#N canvas 798 45 353 215 GeneralBangController.pd 0;
#X text 117 70 BPM numberbox;
#X obj 40 91 tgl 15 0 empty empty empty 17 7 0 10 -262144 -1 -1 0 1
;
#X floatatom 86 70 5 0 0 0 - - -;
#X obj 86 153 bng 15 250 50 0 empty empty empty 17 7 0 10 -262144 -1
-1;
#X msg 86 109 tempo \$1 permin;
#X obj 86 132 metro 1 120 permin;
#X obj 89 33 hsl 128 15 0 127 0 0 empty empty empty -2 -8 0 10 -262144
-1 -1 0 1;
#X obj 86 173 s GeneralBang;
#X text 23 10 Control BPM by sending 0/1 to GeneralBang variable;
#X obj 40 65 inlet;
#X obj 106 51 inlet;
#X obj 106 90 outlet;
#X obj 230 86 s BPM;
#X connect 1 0 5 0;
#X connect 2 0 4 0;
#X connect 2 0 11 0;
#X connect 2 0 12 0;
#X connect 3 0 7 0;
#X connect 4 0 5 0;
#X connect 5 0 3 0;
#X connect 6 0 2 0;
#X connect 9 0 1 0;
#X connect 10 0 2 0;
#X restore 22 341 pd GeneralBangController.pd;
#X obj 22 318 tgl 15 0 empty empty empty 17 7 0 10 -262144 -1 -1 0
1;
#N canvas 968 565 450 300 FindDNABase.pd 0;
#X floatatom 105 50 5 0 0 0 - - -;
#X obj 17 35 r DNAposition;
#X text 17 8 Find DNA bases;
#X obj 17 71 expr ListDNABases[$f1];
#X obj 206 30 r ListDNABases;
#X floatatom 17 100 5 0 0 0 - - -;
#X obj 227 80 table ListDNABases;
#X connect 1 0 0 0;
#X connect 1 0 3 0;
#X connect 3 0 5 0;
#X restore 378 778 pd FindDNABase.pd;
#X floatatom 255 802 5 0 0 0 - - -;
#X text 293 803 # bases;
#X obj 255 754 bng 15 250 50 0 empty empty empty 17 7 0 10 -262144
-1 -1;
#N canvas 1130 28 310 148 readBasesFrequencies.pd 0;
#X msg 74 62 read BasesFrequencies.txt cr;
#X obj 30 88 textfile;
#X obj 10 37 t b b b;
#X msg 29 62 rewind;
#X obj 10 17 bng 15 250 50 0 empty empty empty 17 7 0 10 -262144 -1
-1;
#X obj 30 120 s ListBasesFrequencies;
#X obj 10 -5 inlet;
#X text 114 25 Bases Order: A \, G \, T \, C;
#X msg 108 74 print;
#X obj 104 102 print list;
#X connect 0 0 1 0;
#X connect 1 0 5 0;
#X connect 1 0 9 0;
#X connect 2 0 1 0;
#X connect 2 1 3 0;
#X connect 2 2 0 0;
#X connect 3 0 1 0;
#X connect 4 0 2 0;
#X connect 6 0 4 0;
#X connect 8 0 1 0;
#X restore 44 116 pd readBasesFrequencies.pd;
#X obj 44 93 bng 15 250 50 0 empty empty empty 17 7 0 10 -262144 -1
-1;
#N canvas 618 161 450 300 GenomeFrequencyPlaying.pd 0;
#X restore 13 235 pd GenomeFrequencyPlaying.pd;
#N canvas 678 139 499 327 readFastaFromBANG.pd 0;
#X obj 159 43 inlet;
#X obj 159 66 bng 15 250 50 0 empty empty empty 17 7 0 10 -262144 -1
-1;
#X text 155 24 Initialize;
#X obj 177 159 textfile;
#X msg 194 117 rewind;
#X obj 159 91 t b b b b;
#X msg 255 145 print;
#X obj 84 143 bng 15 250 50 0 empty empty empty 17 7 0 10 -262144 -1
-1;
#X obj 84 115 r GeneralBang;
#X obj 106 238 s DNABase;
#X obj 256 176 print list;
#X obj 169 238 s ATCGprop;
#X obj 43 238 s BaseNbr;
#X obj 238 238 s NameGeneFeature;
#X obj 177 195 unpack f s f s s s;
#X obj 349 238 s AA;
#X obj 382 238 s SecStruct;
#X msg 243 118 read Genome.tab cr;
#X connect 0 0 1 0;
#X connect 1 0 5 0;
#X connect 3 0 10 0;
#X connect 3 0 14 0;
#X connect 4 0 3 0;
#X connect 5 2 4 0;
#X connect 5 3 17 0;
#X connect 6 0 3 0;
#X connect 7 0 3 0;
#X connect 8 0 7 0;
#X connect 14 0 12 0;
#X connect 14 1 9 0;
#X connect 14 2 11 0;
#X connect 14 3 13 0;
#X connect 14 4 15 0;
#X connect 14 5 16 0;
#X connect 17 0 3 0;
#X restore 45 70 pd readFastaFromBANG.pd;
#X obj 45 48 bng 15 250 50 0 empty empty empty 17 7 0 10 -262144 -1
-1;
#X obj 407 222 r DNAposition;
#X floatatom 407 246 5 0 0 0 - - -;
#X obj 501 220 r DNABase;
#X obj 501 262 select A T C G;
#X obj 521 285 bng 15 250 50 0 empty empty empty 17 7 0 10 -262144
-1 -1;
#X obj 501 285 bng 15 250 50 0 empty empty empty 17 7 0 10 -262144
-1 -1;
#X obj 561 285 bng 15 250 50 0 empty empty empty 17 7 0 10 -262144
-1 -1;
#X obj 541 285 bng 15 250 50 0 empty empty empty 17 7 0 10 -262144
-1 -1;
#X obj 501 241 symbol;
#N canvas 40 76 1400 802 substractiveSynthesis.pd 0;
#X coords 0 802 1 801 85 60 0;
#X restore 378 758 pd substractiveSynthesis.pd;
#X msg 225 157 \; metro 0;
#X msg 224 115 \; pd dsp 1 \; metro 1;
#X text 290 126 <-Click to start;
#X text 279 162 <-Click to stop;
#N canvas 272 121 1111 683 testFrequencySpectra.pd 0;
#X obj 222 88 osc~;
#X obj 278 89 vline~;
#X obj 222 112 *~;
#X obj 222 65 440;
#X obj 330 198 line~;
#X msg 330 157 0.1 100;
#X msg 342 176 0 100;
#X text 387 157 on;
#X text 382 176 off;
#X obj 264 210 *~;
#X obj 255 262 dac~;
#X obj 264 235 *~ 1;
#X obj 254 36 bng 15 250 50 0 empty empty empty 17 7 0 10 -262144 -1
-1;
#X msg 278 68 1 10 1000 \, 0 300 2000;
#X obj 264 178 *~;
#X obj 330 134 osc~;
#X obj 330 88 bng 15 250 50 0 empty empty empty 17 7 0 10 -262144 -1
-1;
#X obj 23 87 osc~;
#X obj 79 88 vline~;
#X obj 23 111 *~;
#X obj 23 64 440;
#X obj 96 174 line~;
#X msg 95 133 0.1 100;
#X msg 107 152 0 100;
#X text 152 133 on;
#X text 147 152 off;
#X obj 29 186 *~;
#X obj 20 238 dac~;
#X obj 29 211 *~ 1;
#X obj 23 24 bng 15 250 50 0 empty empty empty 17 7 0 10 -262144 -1
-1;
#X msg 79 67 1 10 1000 \, 0 300 2000;
#X obj 330 111 240;
#X obj 507 70 noise~;
#X msg 507 42 seed 123;
#X obj 573 82 line~;
#X msg 573 40 0.1 100;
#X msg 585 60 0 100;
#X text 630 41 on;
#X text 625 60 off;
#X obj 508 96 *~;
#X obj 501 252 dac~;
#X obj 510 225 *~ 0.5;
#X obj 634 159 env~;
#X floatatom 634 184 0 0 0 0 - - -;
#X obj 508 120 lop~ 600;
#X obj 839 24 r DNABase;
#X obj 839 66 select A T C G;
#X obj 859 89 bng 15 250 50 0 empty empty empty 17 7 0 10 -262144 -1
-1;
#X obj 839 89 bng 15 250 50 0 empty empty empty 17 7 0 10 -262144 -1
-1;
#X obj 899 89 bng 15 250 50 0 empty empty empty 17 7 0 10 -262144 -1
-1;
#X obj 879 89 bng 15 250 50 0 empty empty empty 17 7 0 10 -262144 -1
-1;
#X obj 839 45 symbol;
#X obj 680 254 vsl 15 128 0 1000 0 0 empty empty Hz 0 -9 0 10 -262144
-1 -1 0 1;
#X obj 691 526 bp~;
#X obj 938 510 line~;
#X msg 950 488 0 100;
#X text 995 469 on;
#X text 990 488 off;
#X obj 872 551 *~;
#X obj 863 603 dac~;
#X obj 654 444 osc~;
#X obj 718 341 bng 15 250 50 0 empty empty empty 17 7 0 10 -262144
-1 -1;
#X obj 603 470 env~;
#X msg 220 5;
#X floatatom 220 26 5 0 0 0 - - -;
#X floatatom 602 497 5 0 0 0 - - -;
#X obj 979 84 bng 15 250 50 0 empty empty empty 17 7 0 10 -262144 -1
-1;
#X floatatom 707 412 5 0 0 0 - - -;
#X obj 691 550 env~;
#X floatatom 690 577 5 0 0 0 - - -;
#X msg 938 469 1 100;
#X obj 829 490 50;
#X obj 827 111 350;
#X obj 853 111 400;
#X obj 879 111 450;
#X obj 906 111 500;
#X obj 979 110 600;
#X obj 572 369 noise~;
#X msg 572 341 seed 123;
#X obj 913 609 env~;
#X floatatom 912 636 5 0 0 0 - - -;
#X obj 973 562 env~;
#X floatatom 972 589 5 0 0 0 - - -;
#X obj 872 576 *~ 1, f 7;
#X obj 928 542 hsl 128 15 0 100 0 0 empty empty Gain -2 -8 0 10 -262144
-1 -1 0 1;
#X obj 744 78 bng 15 250 50 0 empty empty empty 17 7 0 10 -262144 -1
-1;
#X floatatom 744 96 5 0 0 0 - - -;
#X obj 724 82 vsl 15 128 0 1000 0 0 empty empty Hz 0 -9 0 10 -262144
-1 -1 0 1;
#X obj 767 147 osc~;
#X obj 757 172 env~;
#X floatatom 757 191 5 0 0 0 - - -;
#X obj 799 204 env~;
#X floatatom 798 231 5 0 0 0 - - -;
#X obj 883 163 50;
#X obj 920 239 line~;
#X msg 932 217 0 100;
#X text 977 198 on;
#X text 972 217 off;
#X obj 854 280 *~;
#X obj 845 332 dac~;
#X msg 920 198 1 100;
#X obj 895 338 env~;
#X floatatom 894 365 5 0 0 0 - - -;
#X obj 955 291 env~;
#X floatatom 954 318 5 0 0 0 - - -;
#X obj 854 305 *~ 1, f 7;
#X obj 799 171 bp~ 400 10;
#X obj 188 268 r DNABase;
#X obj 188 310 select A T C G;
#X obj 208 333 bng 15 250 50 0 empty empty empty 17 7 0 10 -262144
-1 -1;
#X obj 188 333 bng 15 250 50 0 empty empty empty 17 7 0 10 -262144
-1 -1;
#X obj 248 333 bng 15 250 50 0 empty empty empty 17 7 0 10 -262144
-1 -1;
#X obj 228 333 bng 15 250 50 0 empty empty empty 17 7 0 10 -262144
-1 -1;
#X obj 188 289 symbol;
#X obj 328 328 bng 15 250 50 0 empty empty empty 17 7 0 10 -262144
-1 -1;
#X obj 176 355 350;
#X obj 202 355 400;
#X obj 228 355 450;
#X obj 255 355 500;
#X obj 328 354 600;
#X obj 106 416 env~;
#X floatatom 106 435 5 0 0 0 - - -;
#X obj 148 448 env~;
#X floatatom 147 475 5 0 0 0 - - -;
#X obj 232 407 50;
#X obj 269 483 line~;
#X msg 281 461 0 100;
#X text 326 442 on;
#X text 321 461 off;
#X obj 203 524 *~;
#X obj 194 576 dac~;
#X msg 269 442 1 100;
#X obj 244 582 env~;
#X floatatom 243 609 5 0 0 0 - - -;
#X obj 304 535 env~;
#X floatatom 303 562 5 0 0 0 - - -;
#X obj 203 549 *~ 1, f 7;
#X obj 148 415 bp~ 400 10;
#X obj 69 350 noise~;
#X msg 69 322 seed 123;
#X connect 0 0 2 0;
#X connect 1 0 2 1;
#X connect 2 0 14 0;
#X connect 3 0 0 0;
#X connect 4 0 9 1;
#X connect 5 0 4 0;
#X connect 6 0 4 0;
#X connect 9 0 11 0;
#X connect 11 0 10 0;
#X connect 11 0 10 1;
#X connect 12 0 3 0;
#X connect 12 0 13 0;
#X connect 13 0 1 0;
#X connect 14 0 9 0;
#X connect 15 0 14 1;
#X connect 16 0 31 0;
#X connect 17 0 19 0;
#X connect 18 0 19 1;
#X connect 19 0 26 0;
#X connect 20 0 17 0;
#X connect 21 0 26 1;
#X connect 22 0 21 0;
#X connect 23 0 21 0;
#X connect 26 0 28 0;
#X connect 28 0 27 0;
#X connect 28 0 27 1;
#X connect 29 0 20 0;
#X connect 29 0 30 0;
#X connect 30 0 18 0;
#X connect 31 0 15 0;
#X connect 32 0 39 0;
#X connect 33 0 32 0;
#X connect 34 0 39 1;
#X connect 35 0 34 0;
#X connect 36 0 34 0;
#X connect 39 0 44 0;
#X connect 41 0 40 0;
#X connect 41 0 40 1;
#X connect 42 0 43 0;
#X connect 44 0 41 0;
#X connect 44 0 42 0;
#X connect 45 0 51 0;
#X connect 46 0 48 0;
#X connect 46 1 47 0;
#X connect 46 2 50 0;
#X connect 46 3 49 0;
#X connect 47 0 73 0;
#X connect 48 0 72 0;
#X connect 49 0 75 0;
#X connect 50 0 74 0;
#X connect 51 0 46 0;
#X connect 52 0 67 0;
#X connect 52 0 53 1;
#X connect 53 0 58 0;
#X connect 53 0 68 0;
#X connect 54 0 58 1;
#X connect 55 0 54 0;
#X connect 58 0 81 0;
#X connect 58 0 83 0;
#X connect 60 0 53 0;
#X connect 60 0 62 0;
#X connect 61 0 67 0;
#X connect 62 0 65 0;
#X connect 63 0 64 0;
#X connect 66 0 76 0;
#X connect 68 0 69 0;
#X connect 70 0 54 0;
#X connect 71 0 53 2;
#X connect 72 0 106 1;
#X connect 73 0 106 1;
#X connect 74 0 106 1;
#X connect 75 0 106 1;
#X connect 77 0 60 0;
#X connect 78 0 77 0;
#X connect 79 0 80 0;
#X connect 81 0 82 0;
#X connect 83 0 59 0;
#X connect 83 0 59 1;
#X connect 83 0 79 0;
#X connect 84 0 83 1;
#X connect 85 0 86 0;
#X connect 86 0 88 0;
#X connect 87 0 86 0;
#X connect 88 0 89 0;
#X connect 88 0 106 0;
#X connect 89 0 90 0;
#X connect 91 0 92 0;
#X connect 93 0 106 2;
#X connect 94 0 98 1;
#X connect 95 0 94 0;
#X connect 98 0 103 0;
#X connect 98 0 105 0;
#X connect 100 0 94 0;
#X connect 101 0 102 0;
#X connect 103 0 104 0;
#X connect 105 0 99 0;
#X connect 105 0 99 1;
#X connect 105 0 101 0;
#X connect 106 0 91 0;
#X connect 106 0 98 0;
#X connect 107 0 113 0;
#X connect 108 0 110 0;
#X connect 108 1 109 0;
#X connect 108 2 112 0;
#X connect 108 3 111 0;
#X connect 109 0 116 0;
#X connect 110 0 115 0;
#X connect 111 0 118 0;
#X connect 112 0 117 0;
#X connect 113 0 108 0;
#X connect 114 0 119 0;
#X connect 115 0 137 1;
#X connect 116 0 137 1;
#X connect 117 0 137 1;
#X connect 118 0 137 1;
#X connect 120 0 121 0;
#X connect 122 0 123 0;
#X connect 124 0 137 2;
#X connect 125 0 129 1;
#X connect 126 0 125 0;
#X connect 129 0 134 0;
#X connect 129 0 136 0;
#X connect 131 0 125 0;
#X connect 132 0 133 0;
#X connect 134 0 135 0;
#X connect 136 0 130 0;
#X connect 136 0 130 1;
#X connect 136 0 132 0;
#X connect 137 0 122 0;
#X connect 137 0 129 0;
#X connect 138 0 137 0;
#X connect 139 0 138 0;
#X restore 378 800 pd testFrequencySpectra.pd;
#N canvas 869 201 545 609 NoiseBandPass.pd 0;
#X obj 184 9 r DNABase;
#X obj 184 51 select A T C G;
#X obj 204 74 bng 15 250 50 0 empty empty empty 17 7 0 10 -262144 -1
-1;
#X obj 184 74 bng 15 250 50 0 empty empty empty 17 7 0 10 -262144 -1
-1;
#X obj 244 74 bng 15 250 50 0 empty empty empty 17 7 0 10 -262144 -1
-1;
#X obj 224 74 bng 15 250 50 0 empty empty empty 17 7 0 10 -262144 -1
-1;
#X obj 184 30 symbol;
#X obj 172 96 350;
#X obj 198 96 400;
#X obj 224 96 450;
#X obj 251 96 500;
#X obj 102 157 env~;
#X floatatom 102 176 5 0 0 0 - - -;
#X obj 144 189 env~;
#X floatatom 143 216 5 0 0 0 - - -;
#X obj 228 148 50;
#X obj 214 224 line~;
#X msg 226 202 0 100;
#X text 271 183 on;
#X text 266 202 off;
#X obj 199 265 *~;
#X msg 214 183 1 100;
#X obj 239 358 env~;
#X floatatom 238 385 5 0 0 0 - - -;
#X obj 300 276 env~;
#X floatatom 299 303 5 0 0 0 - - -;
#X obj 198 325 *~ 1, f 7;
#X obj 144 156 bp~ 400 10;
#X obj 65 91 noise~;
#X msg 65 63 seed 123;
#X obj 292 341 hsl 128 15 0 30 0 0 empty empty Gain -2 -8 0 10 -262144
-1 -1 0 1;
#X obj 242 298 inlet;
#X obj 238 408 outlet;
#X obj 363 100 loadbang;
#X obj 87 420 s~ Mono_NoiseBP;
#X connect 0 0 6 0;
#X connect 1 0 3 0;
#X connect 1 1 2 0;
#X connect 1 2 5 0;
#X connect 1 3 4 0;
#X connect 2 0 8 0;
#X connect 3 0 7 0;
#X connect 4 0 10 0;
#X connect 5 0 9 0;
#X connect 6 0 1 0;
#X connect 7 0 27 1;
#X connect 8 0 27 1;
#X connect 9 0 27 1;
#X connect 10 0 27 1;
#X connect 11 0 12 0;
#X connect 13 0 14 0;
#X connect 15 0 27 2;
#X connect 16 0 20 1;
#X connect 17 0 16 0;
#X connect 20 0 24 0;
#X connect 20 0 26 0;
#X connect 21 0 16 0;
#X connect 22 0 23 0;
#X connect 23 0 32 0;
#X connect 24 0 25 0;
#X connect 26 0 22 0;
#X connect 26 0 34 0;
#X connect 27 0 13 0;
#X connect 27 0 20 0;
#X connect 28 0 27 0;
#X connect 29 0 28 0;
#X connect 30 0 26 1;
#X connect 31 0 26 1;
#X connect 33 0 21 0;
#X restore 67 455 pd NoiseBandPass.pd;
#X obj 70 417 hsl 128 15 0 1 0 0 empty empty Gain -2 -8 0 10 -262144
-1 -1 10300 1;
#X floatatom 67 436 5 0 0 0 - - -;
#X floatatom 67 475 5 0 0 0 - - -;
#X obj 138 568 hsl 80 20 0 1 0 0 empty empty Gain -2 -8 0 10 -262144
-1 -1 1300 1;
#X floatatom 135 587 5 0 0 0 - - -;
#N canvas 250 201 511 453 FrequencyBandPass 0;
#X obj 144 4 r DNABase;
#X obj 144 46 select A T C G;
#X obj 164 69 bng 15 250 50 0 empty empty empty 17 7 0 10 -262144 -1
-1;
#X obj 144 69 bng 15 250 50 0 empty empty empty 17 7 0 10 -262144 -1
-1;
#X obj 204 69 bng 15 250 50 0 empty empty empty 17 7 0 10 -262144 -1
-1;
#X obj 184 69 bng 15 250 50 0 empty empty empty 17 7 0 10 -262144 -1
-1;
#X obj 144 25 symbol;
#X obj 132 91 350;
#X obj 158 91 400;
#X obj 184 91 450;
#X obj 211 91 500;
#X obj 49 58 bng 15 250 50 0 empty empty empty 17 7 0 10 -262144 -1
-1;
#X floatatom 49 76 5 0 0 0 - - -;
#X obj 72 111 osc~;
#X obj 283 126 env~;
#X floatatom 283 145 5 0 0 0 - - -;
#X obj 283 175 env~;
#X floatatom 283 197 5 0 0 0 - - -;
#X obj 188 145 50;
#X obj 173 224 line~;
#X msg 185 205 0 100;
#X text 234 186 on;
#X text 229 205 off;
#X obj 158 249 *~;
#X msg 173 186 1 100;
#X obj 286 327 env~;
#X floatatom 286 349 5 0 0 0 - - -;
#X obj 283 264 env~;
#X floatatom 283 285 5 0 0 0 - - -;
#X obj 159 312 *~ 1, f 7;
#X obj 244 304 hsl 128 15 0 30 0 0 empty empty Gain -2 -8 0 10 -262144
-1 -1 0 1;
#X obj 286 370 outlet;
#X obj 22 29 vsl 15 128 100 1500 0 0 empty empty empty 0 -9 0 10 -262144
-1 -1 0 1;
#X obj 198 281 inlet;
#X obj 51 34 inlet;
#X obj 361 50 loadbang;
#X obj 30 370 s~ Mono_FreqBP;
#X obj 104 159 bp~ 400 10;
#X connect 0 0 6 0;
#X connect 1 0 3 0;
#X connect 1 1 2 0;
#X connect 1 2 5 0;
#X connect 1 3 4 0;
#X connect 2 0 8 0;
#X connect 3 0 7 0;
#X connect 4 0 10 0;
#X connect 5 0 9 0;
#X connect 6 0 1 0;
#X connect 7 0 37 1;
#X connect 8 0 37 1;
#X connect 9 0 37 1;
#X connect 10 0 37 1;
#X connect 11 0 12 0;
#X connect 12 0 13 0;
#X connect 13 0 14 0;
#X connect 13 0 37 0;
#X connect 14 0 15 0;
#X connect 16 0 17 0;
#X connect 18 0 37 2;
#X connect 19 0 23 1;
#X connect 20 0 19 0;
#X connect 23 0 27 0;
#X connect 23 0 29 0;
#X connect 24 0 19 0;
#X connect 25 0 26 0;
#X connect 26 0 31 0;
#X connect 27 0 28 0;
#X connect 29 0 25 0;
#X connect 29 0 36 0;
#X connect 30 0 29 1;
#X connect 32 0 12 0;
#X connect 33 0 29 1;
#X connect 34 0 12 0;
#X connect 35 0 24 0;
#X connect 37 0 16 0;
#X connect 37 0 23 0;
#X restore 94 617 pd FrequencyBandPass;
#X floatatom 94 639 5 0 0 0 - - -;
#X obj 69 544 vsl 15 128 300 1200 0 0 empty empty Hz 0 -9 0 10 -262144
-1 -1 200 1;
#X obj 573 220 r ATCGprop;
#X floatatom 573 242 5 0 0 0 - - -;
#X text -6 25 ### Initialization:;
#X text -3 206 #### Section 1: Global Genome Reading:;
#X text 0 260 ### Section 2: Genes reading:;
#X text 249 711 ### Deprecated section:;
#X text 231 -14 #================== # General section : #==================
;
#X text 355 192 #============== # Basic Visualization : #===============
;
#X floatatom 94 319 5 0 0 0 - - -;
#X obj 97 300 hsl 128 15 0 1000 0 0 empty empty bpm -2 -8 0 10 -262144
-1 -1 12700 1;
#X msg 181 319;
#X floatatom 22 363 5 0 0 0 - - -;
#X text 64 48 Bang to load the file;
#X text 64 93 Bang to load frequency (currently unused);
#X obj 46 143 bng 15 250 50 0 empty empty empty 17 7 0 10 -262144 -1
-1;
#X text 65 143 Reset counter;
#N canvas 776 167 655 572 ColorFromATCGprop.pd 1;
#X obj 53 136 hsl 80 20 0 1 0 0 empty empty empty -2 -8 0 10 -262144
-1 -1 1700 1;
#X floatatom 50 161 5 0 0 0 - - -;
#X obj 50 181 s WetGC;
#X obj 156 136 hsl 80 20 0 1 0 0 empty empty empty -2 -8 0 10 -262144
-1 -1 1900 1;
#X floatatom 153 162 5 0 0 0 - - -;
#X obj 153 182 s DryGC;
#X obj 260 136 hsl 80 20 0 1 0 0 empty empty empty -2 -8 0 10 -262144
-1 -1 4900 1;
#X floatatom 257 160 5 0 0 0 - - -;
#X obj 257 181 s RoomsizeGC;
#X obj 17 51 -;
#X floatatom 17 73 5 0 0 0 - - -;
#X obj 17 1 r GeneralBang;
#X floatatom 74 38 5 0 0 0 - - -;
#X obj 17 21 1;
#X obj 74 19 r ATCGprop;
#X connect 0 0 1 0;
#X connect 1 0 2 0;
#X connect 3 0 4 0;
#X connect 4 0 5 0;
#X connect 6 0 7 0;
#X connect 7 0 8 0;
#X connect 9 0 10 0;
#X connect 11 0 13 0;
#X connect 12 0 9 1;
#X connect 13 0 9 0;
#X connect 14 0 12 0;
#X restore 275 578 pd ColorFromATCGprop.pd;
#N canvas 69 45 824 476 patch2dac.pd 1;
#X obj 248 207 freeverb~;
#X msg 132 110 wet \$1;
#X msg 113 152 dry \$1;
#X msg 92 196 roomsize \$1;
#X obj 393 449 dac~;
#X obj 132 90 r WetGC;
#X obj 113 133 r DryGC;
#X obj 92 176 r RoomsizeGC;
#X obj 218 100 r~ Mono_FreqBP;
#X obj 614 149 r~ Mono_NoiseBP;
#X obj 366 232 inlet;
#X obj 366 275 t b b b b;
#X text 594 91 future On/Off;
#X obj 366 254 select 0 1;
#X obj 429 275 t b b b b;
#X obj 389 343 line~;
#X msg 401 324 0 100;
#X obj 374 362 *~;
#X msg 389 305 1 100;
#X obj 335 343 line~;
#X msg 347 324 0 100;
#X obj 320 362 *~;
#X msg 335 305 1 100;
#X obj 498 343 line~;
#X msg 510 324 0 100;
#X obj 483 362 *~;
#X msg 498 305 1 100;
#X obj 444 343 line~;
#X msg 456 324 0 100;
#X obj 429 362 *~;
#X msg 444 305 1 100;
#X obj 143 257 r~ LBass;
#X obj 149 225 r~ RBass;
#X obj 249 286 +~;
#X obj 300 286 +~;
#X obj 320 101 r~ PhasorBassMono;
#X obj 337 143 r~ BassLineMono;
#X obj 160 337 r~ BassLineStereoR;
#X obj 141 408 r~ BassLineStereoL;
#X obj 249 314 +~;
#X obj 300 316 +~;
#X obj 272 4 r~ CrackleMono;
#X connect 0 0 33 0;
#X connect 0 1 34 0;
#X connect 1 0 0 0;
#X connect 2 0 0 0;
#X connect 3 0 0 0;
#X connect 5 0 1 0;
#X connect 6 0 2 0;
#X connect 7 0 3 0;
#X connect 8 0 0 0;
#X connect 8 0 0 1;
#X connect 9 0 25 0;
#X connect 9 0 29 0;
#X connect 10 0 13 0;
#X connect 11 0 20 0;
#X connect 11 1 16 0;
#X connect 11 2 28 0;
#X connect 11 3 24 0;
#X connect 13 0 11 0;
#X connect 13 1 14 0;
#X connect 14 0 22 0;
#X connect 14 1 18 0;
#X connect 14 2 30 0;
#X connect 14 3 26 0;
#X connect 15 0 17 1;
#X connect 16 0 15 0;
#X connect 17 0 4 1;
#X connect 18 0 15 0;
#X connect 19 0 21 1;
#X connect 20 0 19 0;
#X connect 21 0 4 0;
#X connect 22 0 19 0;
#X connect 23 0 25 1;
#X connect 24 0 23 0;
#X connect 25 0 4 1;
#X connect 26 0 23 0;
#X connect 27 0 29 1;
#X connect 28 0 27 0;
#X connect 29 0 4 0;
#X connect 30 0 27 0;
#X connect 31 0 33 1;
#X connect 32 0 34 1;
#X connect 33 0 39 0;
#X connect 34 0 40 0;
#X connect 35 0 0 0;
#X connect 35 0 0 1;
#X connect 37 0 39 1;
#X connect 38 0 40 1;
#X connect 39 0 21 0;
#X connect 40 0 17 0;
#X connect 41 0 0 0;
#X connect 41 0 0 1;
#X restore 480 67 pd patch2dac.pd;
#X floatatom 68 682 5 0 0 0 - - -;
#X text 272 558 # Reverb patch:;
#N canvas 609 91 734 484 GraphicRendering.pd 1;
#X obj 149 196 gemwin;
#X obj 68 109 outlet;
#X obj 68 30 inlet;
#X obj 68 61 route create;
#X msg 68 90 set destroy;
#X msg 143 88 set create;
#X msg 199 132 destroy;
#X msg 133 132 create \, 1;
#X msg 292 152 dimen 400 400;
#X obj 267 103 tgl 15 0 empty empty empty 17 7 0 10 -262144 -1 -1 0
1;
#X obj 28 369 gemhead;
#X obj 28 392 translateXYZ;
#X obj 28 463 text2d;
#X floatatom 73 450 5 0 0 0 - - -;
#X text 108 455 size;
#X obj 74 411 r DNAposition;
#X obj 192 370 gemhead;
#X obj 192 391 translateXYZ;
#X obj 192 462 text2d;
#X floatatom 237 449 5 0 0 0 - - -;
#X text 272 454 size;
#X obj 238 410 r DNABase;
#X msg 238 430 text Base is \$1;
#X msg 74 431 text Bases° : \$1;
#X floatatom 81 369 5 0 0 0 - - -;
#X floatatom 243 370 5 0 0 0 - - -;
#X obj 339 370 gemhead;
#X obj 339 391 translateXYZ;
#X obj 339 462 text2d;
#X floatatom 384 449 5 0 0 0 - - -;
#X text 419 454 size;
#X floatatom 390 370 5 0 0 0 - - -;
#X obj 385 410 r ATCGprop;
#X msg 385 430 text GC: \$1;
#X msg 81 348 3.3;
#X msg 243 350 3.7;
#X msg 390 349 2.9;
#X msg 555 253 draw fill;
#X obj 537 299 polygon 5;
#X obj 245 249 gemhead;
#X obj 245 312 cube;
#X obj 245 270 translateXYZ;
#X msg 284 312 0.2;
#X floatatom 296 255 5 0 0 0 - - -;
#X floatatom 333 256 5 0 0 0 - - -;
#X floatatom 371 256 5 0 0 0 - - -;
#X obj 521 143 gemhead;
#X obj 521 164 translateXYZ;
#X floatatom 574 146 5 0 0 0 - - -;
#X floatatom 609 150 5 0 0 0 - - -;
#X floatatom 647 150 5 0 0 0 - - -;
#X obj 521 185 color 1 1 1;
#X obj 245 291 color 0 0 0;
#X obj 15 335 color 0 0 0;
#X msg 303 174 color 1 1 1;
#X connect 2 0 3 0;
#X connect 3 0 4 0;
#X connect 3 0 7 0;
#X connect 3 1 5 0;
#X connect 3 1 6 0;
#X connect 4 0 1 0;
#X connect 5 0 1 0;
#X connect 6 0 0 0;
#X connect 7 0 0 0;
#X connect 7 0 34 0;
#X connect 7 0 35 0;
#X connect 7 0 36 0;
#X connect 8 0 0 0;
#X connect 9 0 0 0;
#X connect 10 0 53 0;
#X connect 11 0 12 0;
#X connect 13 0 12 1;
#X connect 15 0 23 0;
#X connect 16 0 17 0;
#X connect 17 0 18 0;
#X connect 19 0 18 1;
#X connect 21 0 22 0;
#X connect 22 0 18 0;
#X connect 23 0 12 0;
#X connect 24 0 11 2;
#X connect 25 0 17 2;
#X connect 26 0 27 0;
#X connect 27 0 28 0;
#X connect 29 0 28 1;
#X connect 31 0 27 2;
#X connect 32 0 33 0;
#X connect 33 0 28 0;
#X connect 34 0 24 0;
#X connect 35 0 25 0;
#X connect 36 0 31 0;
#X connect 37 0 38 0;
#X connect 39 0 41 0;
#X connect 41 0 52 0;
#X connect 42 0 40 1;
#X connect 43 0 41 1;
#X connect 44 0 41 2;
#X connect 45 0 41 3;
#X connect 46 0 47 0;
#X connect 47 0 51 0;
#X connect 48 0 47 1;
#X connect 49 0 47 2;
#X connect 50 0 47 3;
#X connect 51 0 38 0;
#X connect 52 0 40 0;
#X connect 53 0 11 0;
#X connect 54 0 0 0;
#X restore 821 690 pd GraphicRendering.pd;
#X floatatom 874 172 0 0 0 0 - - -;
#X obj 874 115 cputime;
#X obj 874 37 loadbang;
#X obj 874 77 metro 1000;
#X floatatom 874 58 0 0 0 0 - - -;
#X obj 874 96 t b b;
#X obj 874 153 * 0.1;
#X obj 874 134 int;
#X text 807 231 CPU load in percent;
#X msg 813 632 create;
#N canvas 121 303 806 407 MarkovChainGenerator.pd 0;
#X obj 222 20 metro 1000;
#X floatatom 137 119 5 0 0 0 - - -;
#X floatatom 218 119 5 0 0 0 - - -;
#X obj 100 50 bng 15 250 50 0 empty empty empty 17 7 0 10 -262144 -1
-1;
#X obj 136 98 random 1000;
#X obj 218 98 random 1000;
#X obj 174 146 -;
#X floatatom 174 168 5 0 0 0 - - -;
#X text 11 35 comment: Random generator between -1 an 1;
#X obj 134 181 +;
#X floatatom 134 203 5 0 0 0 - - -;
#X obj 65 145 spigot;
#X obj 102 116 1;
#X obj 102 73 t b b b b b;
#X obj 57 107 0;
#X msg 120 161 1;
#X connect 1 0 6 0;
#X connect 2 0 6 1;
#X connect 3 0 13 0;
#X connect 4 0 1 0;
#X connect 5 0 2 0;
#X connect 6 0 7 0;
#X connect 7 0 9 1;
#X connect 9 0 10 0;
#X connect 10 0 11 0;
#X connect 11 0 15 0;
#X connect 12 0 11 1;
#X connect 13 0 14 0;
#X connect 13 1 11 0;
#X connect 13 2 12 0;
#X connect 13 3 4 0;
#X connect 13 4 5 0;
#X connect 14 0 11 1;
#X connect 15 0 9 0;
#X restore 277 606 pd MarkovChainGenerator.pd;
#X text 34 378 # Substracted Noise patch:;
#X text 32 503 # Bandwidthed Bases Frequency patch:;
#X obj 111 696 s BdBaFreqO;
#X obj 103 527 r BdBaFreqI;
#N canvas 333 104 1057 739 FrequencyFollower.pd 0;
#X obj 174 149 inlet;
#X obj 126 203 s BdBaFreqI;
#X floatatom 126 96 5 0 0 0 - - -;
#X obj 126 73 r ATCGprop;
#X floatatom 126 134 5 0 0 0 - - -;
#X obj 126 114 * 1000;
#X obj 126 157 + 200;
#X obj 126 179 spigot;
#X connect 0 0 7 1;
#X connect 2 0 5 0;
#X connect 3 0 2 0;
#X connect 4 0 6 0;
#X connect 5 0 4 0;
#X connect 6 0 7 0;
#X connect 7 0 1 0;
#X restore 190 657 pd FrequencyFollower.pd;
#X obj 190 636 tgl 15 0 empty empty empty 17 7 0 10 -262144 -1 -1 0
1;
#X text 425 22 #### Audio rendering :;
#X obj 480 44 tgl 15 0 empty empty empty 17 7 0 10 -262144 -1 -1 1
1;
#N canvas 336 112 694 683 WideBass.pd 0;
#X obj 204 478 dac~;
#X obj 178 97 bng 15 250 50 0 empty empty empty 17 7 0 10 -262144 -1
-1;
#X obj 178 47 tgl 15 0 empty empty empty 17 7 0 10 -262144 -1 -1 0
1;
#X obj 278 295 line~;
#X msg 291 273 0 100;
#X text 335 254 on;
#X text 330 273 off;
#X msg 278 254 1 100;
#X obj 203 291 *~;
#X obj 203 346 *~ 1;
#X floatatom 174 157 5 0 0 0 - - -;
#X obj 146 145 vsl 15 128 100 1500 0 0 empty empty empty 0 -9 0 10
-262144 -1 -1 0 1;
#X obj 196 217 osc~ 150;
#X obj 138 375 env~;
#X floatatom 138 396 5 0 0 0 - - -;
#X floatatom 274 171 5 0 0 0 - - -;
#X obj 414 36 vsl 15 128 100 1500 0 0 empty empty empty 0 -9 0 10 -262144
-1 -1 0 1;
#X obj 274 202 osc~ 1;
#X obj 420 235 env~;
#X floatatom 420 256 5 0 0 0 - - -;
#X obj 246 139 line~;
#X msg 246 107 120 \, 400 1000;
#X obj 497 128 expr ($f1*$f2/2)-$f2/4;
#X obj 646 104 f 3.14159;
#X text 713 105 pi;
#X obj 646 80 loadbang;
#X obj 497 102 clip 0 1;
#X obj 497 152 expr (cos($f1)+sin($f1))*(sqrt(2)/2);
#X obj 605 178 expr (cos($f1)-sin($f1))*(sqrt(2)/2);
#X text 637 129 angle;
#X obj 497 240 line~;
#X obj 605 242 line~;
#N canvas 236 434 450 300 init_interpolation_time 0;
#X obj 98 82 f \$1;
#X obj 98 52 loadbang;
#X obj 98 112 sel 0;
#X obj 98 190 outlet;
#X msg 98 144 200;
#X connect 0 0 2 0;
#X connect 1 0 0 0;
#X connect 2 0 4 0;
#X connect 2 1 3 0;
#X connect 4 0 3 0;
#X restore 588 198 pd init_interpolation_time;
#X obj 497 219 pack 0 200;
#X obj 605 220 pack 0 200;
#X text 459 153 right;
#X text 826 178 left;
#X obj 562 21 inlet panorama;
#X text 565 3 0 ... 1;
#X obj 500 79 hsl 75 12 0 1 0 0 empty empty empty -2 -8 0 10 -260818
-1 -1 3700 1;
#X msg 497 43 0.5;
#X obj 497 22 loadbang;
#X obj 361 422 panner~;
#X obj 437 393 line;
#X msg 437 361 0.1 \, 0.9 1000;
#X obj 36 245 vline~;
#X msg 36 213 1 100 \, 0 1000;
#X obj 138 330 env~;
#X floatatom 138 351 5 0 0 0 - - -;
#X obj 178 71 metro 2000;
#X obj 233 264 inlet;
#X connect 1 0 44 0;
#X connect 1 0 21 0;
#X connect 1 0 46 0;
#X connect 2 0 49 0;
#X connect 3 0 8 1;
#X connect 4 0 3 0;
#X connect 7 0 3 0;
#X connect 8 0 9 0;
#X connect 9 0 13 0;
#X connect 9 0 42 0;
#X connect 10 0 12 0;
#X connect 11 0 10 0;
#X connect 12 0 8 0;
#X connect 13 0 14 0;
#X connect 16 0 15 0;
#X connect 17 0 8 0;
#X connect 18 0 19 0;
#X connect 20 0 17 0;
#X connect 21 0 20 0;
#X connect 22 0 27 0;
#X connect 22 0 28 0;
#X connect 23 0 22 1;
#X connect 25 0 23 0;
#X connect 26 0 22 0;
#X connect 27 0 33 0;
#X connect 28 0 34 0;
#X connect 32 0 33 1;
#X connect 32 0 34 1;
#X connect 33 0 30 0;
#X connect 34 0 31 0;
#X connect 39 0 26 0;
#X connect 40 0 39 0;
#X connect 41 0 40 0;
#X connect 42 0 0 0;
#X connect 42 1 0 1;
#X connect 43 0 42 1;
#X connect 44 0 43 0;
#X connect 46 0 45 0;
#X connect 47 0 48 0;
#X connect 49 0 1 0;
#X connect 50 0 8 1;
#X coords 0 0 10 10 0 0 0;
#X restore 631 473 pd WideBass.pd;
#N canvas 302 119 732 617 PanControler.pd 0;
#X obj 240 207 expr ($f1*$f2/2)-$f2/4;
#X obj 389 183 f 3.14159;
#X text 456 184 pi;
#X obj 389 159 loadbang;
#X obj 240 181 clip 0 1;
#X obj 240 231 expr (cos($f1)+sin($f1))*(sqrt(2)/2);
#X obj 348 257 expr (cos($f1)-sin($f1))*(sqrt(2)/2);
#X text 380 208 angle;
#X obj 240 319 line~;
#X obj 348 321 line~;
#X obj 27 387 outlet~;
#X obj 138 409 outlet~;
#X obj 27 33 inlet~;
#X obj 27 353 *~;
#X obj 138 381 *~;
#N canvas 236 434 450 300 init_interpolation_time 0;
#X obj 98 82 f \$1;
#X obj 98 52 loadbang;
#X obj 98 112 sel 0;
#X obj 98 190 outlet;
#X msg 98 144 200;
#X connect 0 0 2 0;
#X connect 1 0 0 0;
#X connect 2 0 4 0;
#X connect 2 1 3 0;
#X connect 4 0 3 0;
#X restore 331 277 pd init_interpolation_time;
#X obj 240 298 pack 0 200;
#X obj 348 299 pack 0 200;
#X text 202 232 right;
#X text 569 257 left;
#X obj 305 100 inlet panorama;
#X text 308 82 0 ... 1;
#X obj 243 158 hsl 75 12 0 1 0 0 empty empty empty -2 -8 0 10 -260818
-1 -1 3700 1;
#X msg 240 122 0.5;
#X obj 240 101 loadbang;
#X connect 0 0 5 0;
#X connect 0 0 6 0;
#X connect 1 0 0 1;
#X connect 3 0 1 0;
#X connect 4 0 0 0;
#X connect 5 0 16 0;
#X connect 6 0 17 0;
#X connect 8 0 14 1;
#X connect 9 0 13 1;
#X connect 12 0 13 0;
#X connect 12 0 14 0;
#X connect 13 0 10 0;
#X connect 14 0 11 0;
#X connect 15 0 16 1;
#X connect 15 0 17 1;
#X connect 16 0 8 0;
#X connect 17 0 9 0;
#X connect 20 0 22 0;
#X connect 22 0 4 0;
#X connect 23 0 22 0;
#X connect 24 0 23 0;
#X restore 81 761 pd PanControler.pd;
#N canvas 259 94 1022 596 TestBassLucas.pd 0;
#X floatatom 223 81 5 0 0 0 - - -;
#X obj 223 110 osc~ 95;
#X obj 271 217 *~;
#X obj 295 129 line~;
#X msg 314 98 0 100;
#X obj 269 288 dac~;
#X obj 117 113 phasor~ 95;
#X obj 118 154 lop~;
#X msg 139 133 200;
#X floatatom 523 103 5 0 0 0 - - -;
#X obj 557 171 *~;
#X obj 581 83 line~;
#X msg 581 27 0.1 100;
#X msg 600 52 0 100;
#X obj 595 359 dac~;
#X obj 458 25 phasor~ 95;
#X obj 459 66 lop~;
#X msg 480 45 200;
#X obj 542 202 +~;
#X floatatom 472 171 5 0 0 0 - - -;
#X floatatom 718 178 5 0 0 0 - - -;
#X obj 719 209 osc~ 95;
#X obj 606 294 *~;
#X obj 630 206 line~;
#X msg 630 150 0.1 100;
#X msg 649 175 0 100;
#X obj 545 246 osc~;
#X floatatom 575 137 5 0 0 0 - - -;
#X obj 524 129 osc~ 46;
#X msg 582 113 82;
#X msg 471 149 95;
#X text 666 95 Son sympa;
#X floatatom 197 521 5 0 0 0 - - -;
#X obj 230 564 *~;
#X obj 234 741 dac~;
#X obj 215 588 +~;
#X floatatom 164 563 5 0 0 0 - - -;
#X obj 245 676 *~;
#X obj 260 653 line~;
#X msg 279 633 0 100;
#X obj 215 609 osc~;
#X floatatom 248 541 5 0 0 0 - - -;
#X obj 197 541 osc~ 46;
#X msg 248 519 82;
#X msg 164 542 95;
#X obj 202 398 random 25;
#X obj 202 419 * 2;
#X obj 175 385 bng 15 250 50 0 empty empty empty 17 7 0 10 -262144
-1 -1;
#X floatatom 202 440 5 0 0 0 - - -;
#X msg 686 482 1000;
#X floatatom 773 526 5 0 0 0 - - -;
#X floatatom 817 531 5 0 0 0 - - -;
#X obj 668 527 line, f 10;
#X obj 727 441 symbol;
#X obj 776 567 string;
#X obj 202 486 line, f 18;
#X msg 202 462 \$1 500;
#X msg 260 611 0.4 100;
#X obj 202 369 r GeneralBang;
#X msg 295 73 0.4 100;
#X msg 153 501 46;
#X obj 340 512 phasor~ 200;
#X floatatom 346 470 5 0 0 0 - - -;
#X obj 318 557 *~;
#X msg 399 543 0.02;
#X connect 0 0 1 0;
#X connect 1 0 2 0;
#X connect 2 0 5 0;
#X connect 2 0 5 1;
#X connect 3 0 2 1;
#X connect 4 0 3 0;
#X connect 6 0 7 0;
#X connect 7 0 2 0;
#X connect 8 0 7 1;
#X connect 9 0 28 0;
#X connect 10 0 18 1;
#X connect 12 0 11 0;
#X connect 13 0 11 0;
#X connect 15 0 16 0;
#X connect 17 0 16 1;
#X connect 18 0 26 0;
#X connect 19 0 18 0;
#X connect 20 0 21 0;
#X connect 22 0 14 0;
#X connect 22 0 14 1;
#X connect 23 0 22 1;
#X connect 24 0 23 0;
#X connect 25 0 23 0;
#X connect 26 0 22 0;
#X connect 27 0 10 1;
#X connect 28 0 10 0;
#X connect 29 0 27 0;
#X connect 30 0 19 0;
#X connect 32 0 42 0;
#X connect 33 0 35 1;
#X connect 35 0 40 0;
#X connect 36 0 35 0;
#X connect 37 0 34 0;
#X connect 37 0 34 1;
#X connect 38 0 37 1;
#X connect 39 0 38 0;
#X connect 40 0 37 0;
#X connect 41 0 33 1;
#X connect 42 0 33 0;
#X connect 43 0 41 0;
#X connect 44 0 36 0;
#X connect 45 0 46 0;
#X connect 46 0 48 0;
#X connect 47 0 45 0;
#X connect 48 0 56 0;
#X connect 50 0 54 0;
#X connect 55 0 32 0;
#X connect 56 0 55 0;
#X connect 57 0 38 0;
#X connect 58 0 45 0;
#X connect 59 0 3 0;
#X connect 60 0 42 0;
#X connect 61 0 63 0;
#X connect 62 0 61 0;
#X connect 63 0 37 0;
#X connect 64 0 63 1;
#X restore 551 782 pd TestBassLucas.pd;
#X obj 276 382 hsl 128 15 0 1 0 0 empty empty Gain -2 -8 0 10 -262144
-1 -1 0 1;
#X floatatom 273 401 5 0 0 0 - - -;
#X text 260 357 # Strereo Bass Generator;
#N canvas 894 26 538 533 StereoBassGenerator.pd 0;
#X obj 115 269 *~;
#X obj 217 283 env~;
#X floatatom 217 305 5 0 0 0 - - -;
#X obj 115 323 *~ 1, f 7;
#X obj 182 325 hsl 128 15 0 30 0 0 empty empty Gain -2 -8 0 10 -262144
-1 -1 0 1;
#X obj 154 294 inlet;
#X obj 115 420 s~ LBass;
#X obj 175 420 s~ RBass;
#X obj 115 385 panner~;
#X obj 192 364 line;
#X obj 91 22 r GeneralBang;
#X obj 130 199 *~;
#X obj 115 220 +~;
#X floatatom 84 189 5 0 0 0 - - -;
#X obj 115 243 osc~;
#X floatatom 145 179 5 0 0 0 - - -;
#X obj 129 138 osc~ 46;
#X obj 91 47 t b b b b;
#X obj 156 468 dac~;
#X obj 192 235 line~;
#X msg 211 214 0 100;
#X msg 192 193 0.4 100;
#X msg 82 162 82;
#X msg 146 160 46;
#X msg 142 87 7;
#X msg 192 343 0.1 \, 0.9 300;
#X connect 0 0 1 0;
#X connect 0 0 3 0;
#X connect 1 0 2 0;
#X connect 3 0 8 0;
#X connect 4 0 3 1;
#X connect 5 0 3 1;
#X connect 8 0 6 0;
#X connect 8 1 7 0;
#X connect 9 0 8 1;
#X connect 10 0 17 0;
#X connect 11 0 12 1;
#X connect 12 0 14 0;
#X connect 13 0 12 0;
#X connect 14 0 0 0;
#X connect 15 0 11 1;
#X connect 16 0 11 0;
#X connect 17 0 25 0;
#X connect 17 1 22 0;
#X connect 17 2 23 0;
#X connect 17 3 24 0;
#X connect 19 0 0 1;
#X connect 20 0 19 0;
#X connect 21 0 19 0;
#X connect 22 0 13 0;
#X connect 23 0 15 0;
#X connect 24 0 16 0;
#X connect 25 0 9 0;
#X restore 273 420 pd StereoBassGenerator.pd;
#X text 440 357 # Phasor Bass Generator;
#X obj 458 384 hsl 128 15 0 1 0 0 empty empty Gain -2 -8 0 10 -262144
-1 -1 5600 1;
#X floatatom 455 403 5 0 0 0 - - -;
#N canvas 436 318 480 429 PhasorBassGenerator.pd 0;
#X obj 210 82 osc~ 95;
#X obj 126 53 phasor~ 95;
#X obj 127 94 lop~;
#X msg 148 73 200;
#X obj 257 161 env~;
#X floatatom 257 183 5 0 0 0 - - -;
#X obj 155 201 *~ 1, f 7;
#X obj 211 203 hsl 128 15 0 30 0 0 empty empty Gain -2 -8 0 10 -262144
-1 -1 0 1;
#X obj 194 172 inlet;
#X obj 232 242 line;
#X msg 232 221 0.1 \, 0.9 300;
#X obj 158 271 s~ PhasorBassMono;
#X obj 154 138 *~ 0.4;
#X msg 211 56 93;
#X connect 0 0 12 0;
#X connect 1 0 2 0;
#X connect 2 0 12 0;
#X connect 3 0 2 1;
#X connect 4 0 5 0;
#X connect 6 0 11 0;
#X connect 7 0 6 1;
#X connect 8 0 6 1;
#X connect 10 0 9 0;
#X connect 12 0 6 0;
#X connect 12 0 4 0;
#X connect 13 0 0 0;
#X restore 454 425 pd PhasorBassGenerator.pd;
#N canvas 390 332 915 499 BassLine.pd 0;
#X obj 210 82 osc~ 95;
#X obj 126 53 phasor~ 95;
#X obj 127 94 lop~;
#X msg 148 73 200;
#X obj 257 161 env~;
#X floatatom 257 183 5 0 0 0 - - -;
#X obj 155 201 *~ 1, f 7;
#X obj 223 199 hsl 128 15 0 30 0 0 empty empty Gain -2 -8 0 10 -262144
-1 -1 0 1;
#X obj 194 172 inlet;
#X obj 232 242 line;
#X msg 232 221 0.1 \, 0.9 300;
#X obj 154 138 *~ 0.4;
#X msg 211 56 34;
#X obj 91 472 s~ BassLineMono;
#X obj 156 291 *~;
#X floatatom 428 175 5 0 0 0 - - -;
#X obj 406 39 bng 15 250 50 0 empty empty empty 17 7 0 10 -262144 -1
-1;
#X floatatom 433 94 5 0 0 0 - - -;
#X obj 433 140 line, f 18;
#X msg 433 116 \$1 500;
#X obj 433 23 r GeneralBang;
#X obj 433 52 random 100;
#X obj 433 73 / 60;
#X obj 157 316 bp~ 400 10;
#X floatatom 589 214 5 0 0 0 - - -;
#X obj 566 32 bng 15 250 50 0 empty empty empty 17 7 0 10 -262144 -1
-1;
#X floatatom 594 87 5 0 0 0 - - -;
#X obj 594 179 line, f 18;
#X msg 594 155 \$1 500;
#X obj 594 16 r GeneralBang;
#X obj 594 45 random 100;
#X obj 594 66 / 100;
#X obj 594 109 * 240;
#X obj 178 398 freeverb~;
#X obj 175 441 s~ BassLineStereoR;
#X obj 295 441 s~ BassLineStereoL;
#X msg 44 281 roomsize \$1;
#X msg 31 304 Dry \$1;
#X msg 22 324 Wet \$1;
#X obj 13 162 vsl 15 128 0 1 0 0 empty empty Wet 0 -9 0 10 -262144
-1 -1 0 1;
#X obj 40 148 vsl 15 128 0 1 0 0 empty empty Wet 0 -9 0 10 -262144
-1 -1 0 1;
#X obj 64 139 vsl 15 128 0 1 0 0 empty empty Wet 0 -9 0 10 -262144
-1 -1 0 1;
#X obj 594 132 + 20;
#X connect 0 0 11 0;
#X connect 1 0 2 0;
#X connect 2 0 11 0;
#X connect 3 0 2 1;
#X connect 4 0 5 0;
#X connect 6 0 14 0;
#X connect 7 0 6 1;
#X connect 8 0 6 1;
#X connect 10 0 9 0;
#X connect 11 0 6 0;
#X connect 11 0 4 0;
#X connect 12 0 0 0;
#X connect 14 0 23 0;
#X connect 15 0 14 1;
#X connect 16 0 21 0;
#X connect 17 0 19 0;
#X connect 18 0 15 0;
#X connect 19 0 18 0;
#X connect 20 0 21 0;
#X connect 21 0 22 0;
#X connect 22 0 17 0;
#X connect 23 0 34 0;
#X connect 23 0 35 0;
#X connect 24 0 23 1;
#X connect 25 0 30 0;
#X connect 26 0 32 0;
#X connect 27 0 24 0;
#X connect 28 0 27 0;
#X connect 29 0 30 0;
#X connect 30 0 31 0;
#X connect 31 0 26 0;
#X connect 32 0 42 0;
#X connect 33 0 34 0;
#X connect 33 1 35 0;
#X connect 36 0 33 0;
#X connect 37 0 33 0;
#X connect 38 0 33 0;
#X connect 39 0 38 0;
#X connect 40 0 37 0;
#X connect 41 0 36 0;
#X connect 42 0 28 0;
#X restore 643 426 pd BassLine.pd;
#X obj 646 386 hsl 128 15 0 1 0 0 empty empty Gain -2 -8 0 10 -262144
-1 -1 12700 1;
#X floatatom 643 406 5 0 0 0 - - -;
#X msg 21 610 321.2;
#X msg 22 639 470;
#X msg 23 667 342;
#X msg 18 696 349.6;
#X msg -16 629 370.8;
#N canvas 473 115 450 371 crackle.pd 0;
#X msg 92 31 @freq 3;
#X msg 188 31 @freq 50;
#X obj 92 60 noise.crackle~;
#X obj 72 115 *~ 1, f 7;
#X obj 139 113 hsl 128 15 0 30 0 0 empty empty Gain -2 -8 0 10 -262144
-1 -1 0 1;
#X obj 111 86 inlet;
#X obj 56 158 s~ CrackleStereoR;
#X obj 176 158 s~ CrackleStereoL;
#X obj 66 203 s~ CrackleMono;
#X connect 0 0 2 0;
#X connect 1 0 2 0;
#X connect 2 0 3 0;
#X connect 3 0 8 0;
#X connect 4 0 3 1;
#X connect 5 0 3 1;
#X restore 798 430 pd crackle.pd;
#X obj 801 386 hsl 128 15 0 1 0 0 empty empty Gain -2 -8 0 10 -262144
-1 -1 7800 1;
#X floatatom 798 406 5 0 0 0 - - -;
#X floatatom 646 243 5 0 0 0 - - -;
#X obj 646 220 r NameGeneFeature;
#N canvas 632 160 754 638 AminoAcids.pd 0;
#X obj 164 69 bng 15 250 50 0 empty empty empty 17 7 0 10 -262144 -1
-1;
#X obj 144 69 bng 15 250 50 0 empty empty empty 17 7 0 10 -262144 -1
-1;
#X obj 204 69 bng 15 250 50 0 empty empty empty 17 7 0 10 -262144 -1
-1;
#X obj 184 69 bng 15 250 50 0 empty empty empty 17 7 0 10 -262144 -1
-1;
#X obj 144 25 symbol;
#X obj 144 4 r AminoAcids;
#X obj 144 46 select A R N D B C E Q Z G H I L K M F P S T W Y V,
f 74;
#X obj 244 69 bng 15 250 50 0 empty empty empty 17 7 0 10 -262144 -1
-1;
#X obj 224 69 bng 15 250 50 0 empty empty empty 17 7 0 10 -262144 -1
-1;
#X obj 284 69 bng 15 250 50 0 empty empty empty 17 7 0 10 -262144 -1
-1;
#X obj 264 69 bng 15 250 50 0 empty empty empty 17 7 0 10 -262144 -1
-1;
#X obj 324 69 bng 15 250 50 0 empty empty empty 17 7 0 10 -262144 -1
-1;
#X obj 304 69 bng 15 250 50 0 empty empty empty 17 7 0 10 -262144 -1
-1;
#X obj 364 69 bng 15 250 50 0 empty empty empty 17 7 0 10 -262144 -1
-1;
#X obj 344 69 bng 15 250 50 0 empty empty empty 17 7 0 10 -262144 -1
-1;
#X obj 404 69 bng 15 250 50 0 empty empty empty 17 7 0 10 -262144 -1
-1;
#X obj 384 69 bng 15 250 50 0 empty empty empty 17 7 0 10 -262144 -1
-1;
#X obj 444 69 bng 15 250 50 0 empty empty empty 17 7 0 10 -262144 -1
-1;
#X obj 424 69 bng 15 250 50 0 empty empty empty 17 7 0 10 -262144 -1
-1;
#X obj 484 69 bng 15 250 50 0 empty empty empty 17 7 0 10 -262144 -1
-1;
#X obj 464 69 bng 15 250 50 0 empty empty empty 17 7 0 10 -262144 -1
-1;
#X obj 524 69 bng 15 250 50 0 empty empty empty 17 7 0 10 -262144 -1
-1;
#X obj 504 69 bng 15 250 50 0 empty empty empty 17 7 0 10 -262144 -1
-1;
#X obj 564 69 bng 15 250 50 0 empty empty empty 17 7 0 10 -262144 -1
-1;
#X obj 544 69 bng 15 250 50 0 empty empty empty 17 7 0 10 -262144 -1
-1;
#X obj 585 69 bng 15 250 50 0 empty empty empty 17 7 0 10 -262144 -1
-1;
#X floatatom 65 30 5 0 0 0 - - -;
#X obj 65 7 r BasePM;
#X obj 164 229 osc~;
#X obj 179 286 line~;
#X msg 191 267 0 100;
#X obj 164 305 *~;
#X msg 179 248 1 100;
#X obj 164 335 dac~;
#X msg 164 207 392;
#X obj 14 128 metro 250;
#X obj 65 103 %;
#X msg 80 80 2;
#X obj 46 164 + 1;
#X obj 14 164 i;
#X obj 14 146 bng 15 250 50 0 empty empty empty 17 7 0 10 -262144 -1
-1;
#X obj 163 176 % 8;
#X obj 268 219 osc~;
#X obj 283 276 line~;
#X msg 295 257 0 100;
#X obj 268 295 *~;
#X msg 283 238 1 100;
#X obj 268 325 dac~;
#X msg 268 197 349.23;
#X connect 4 0 6 0;
#X connect 5 0 4 0;
#X connect 6 0 1 0;
#X connect 6 1 0 0;
#X connect 6 2 3 0;
#X connect 6 3 2 0;
#X connect 6 4 8 0;
#X connect 6 5 7 0;
#X connect 6 6 10 0;
#X connect 6 7 9 0;
#X connect 6 8 12 0;
#X connect 6 9 11 0;
#X connect 6 10 14 0;
#X connect 6 11 13 0;
#X connect 6 12 16 0;
#X connect 6 13 15 0;
#X connect 6 14 18 0;
#X connect 6 15 17 0;
#X connect 6 16 20 0;
#X connect 6 17 19 0;
#X connect 6 18 22 0;
#X connect 6 19 21 0;
#X connect 6 20 24 0;
#X connect 6 21 23 0;
#X connect 6 22 25 0;
#X connect 26 0 36 0;
#X connect 27 0 26 0;
#X connect 28 0 31 0;
#X connect 29 0 31 1;
#X connect 30 0 29 0;
#X connect 31 0 33 0;
#X connect 31 0 33 1;
#X connect 32 0 29 0;
#X connect 34 0 28 0;
#X connect 35 0 40 0;
#X connect 36 0 35 1;
#X connect 37 0 36 1;
#X connect 38 0 39 1;
#X connect 39 0 38 0;
#X connect 40 0 39 0;
#X connect 42 0 45 0;
#X connect 43 0 45 1;
#X connect 44 0 43 0;
#X connect 45 0 47 0;
#X connect 45 0 47 1;
#X connect 46 0 43 0;
#X connect 48 0 42 0;
#X restore 714 785 pd AminoAcids.pd;
#X obj 929 312 BassDrop;
#X obj 385 662 MarkovChain;
#X obj 590 621 rnorm;
#X floatatom 589 708 5 0 0 0 - - -;
#X floatatom 590 602 5 0 0 0 - - -;
#X obj 586 578 bng 15 250 50 0 empty empty empty 17 7 0 10 -262144
-1 -1;
#X connect 1 0 6 0;
#X connect 3 0 49 0;
#X connect 4 0 3 0;
#X connect 8 0 1 0;
#X connect 10 0 9 0;
#X connect 13 0 12 0;
#X connect 14 0 15 0;
#X connect 16 0 22 0;
#X connect 17 0 19 0;
#X connect 17 1 18 0;
#X connect 17 2 21 0;
#X connect 17 3 20 0;
#X connect 22 0 17 0;
#X connect 29 0 32 0;
#X connect 30 0 31 0;
#X connect 31 0 29 0;
#X connect 33 0 34 0;
#X connect 34 0 35 1;
#X connect 35 0 36 0;
#X connect 37 0 56 0;
#X connect 38 0 39 0;
#X connect 46 0 3 1;
#X connect 47 0 46 0;
#X connect 48 0 3 1;
#X connect 52 0 2 0;
#X connect 56 0 35 0;
#X connect 56 0 72 0;
#X connect 58 0 68 0;
#X connect 60 0 66 0;
#X connect 61 0 63 0;
#X connect 62 0 64 0;
#X connect 63 0 62 0;
#X connect 64 0 60 0;
#X connect 64 1 60 1;
#X connect 65 0 59 0;
#X connect 66 0 65 0;
#X connect 68 0 58 0;
#X connect 73 0 37 0;
#X connect 75 0 74 0;
#X connect 77 0 55 0;
#X connect 81 0 82 0;
#X connect 82 0 84 0;
#X connect 86 0 87 0;
#X connect 87 0 88 0;
#X connect 90 0 91 0;
#X connect 91 0 89 0;
#X connect 92 0 56 0;
#X connect 93 0 56 0;
#X connect 94 0 56 0;
#X connect 95 0 56 0;
#X connect 96 0 56 0;
#X connect 98 0 99 0;
#X connect 99 0 97 0;
#X connect 101 0 100 0;
#X connect 105 0 106 0;
#X connect 107 0 105 0;
#X connect 108 0 107 0;
