#N canvas 151 23 1289 820 10;
#X obj 963 10 cnv 15 300 280 empty empty empty 20 12 0 14 -233017 -66577
0;
#X obj 1160 217 tgl 15 0 empty empty empty 17 7 0 10 -262144 -1 -1
1 1;
#X obj 975 33 bng 15 250 50 0 empty empty empty 17 7 0 10 -262144 -1
-1;
#X msg 977 119 \; pd dsp 1 \; metro 1;
#X text 1043 130 <-Click to start;
#X text 1031 167 <-Click to stop;
#X text 972 15 ### Initialization:;
#X floatatom 1160 255 5 0 0 0 - - -;
#X text 994 33 Bang to load the file;
#X obj 976 74 bng 15 250 50 0 empty empty empty 17 7 0 10 -262144 -1
-1;
#X text 973 215 #### Audio rendering :;
#X obj 978 230 tgl 15 0 empty empty empty 17 7 0 10 -262144 -1 -1 1
1;
#X text 995 74 Reset counter (unused ?);
#X obj 1241 27 vsl 15 200 0 2000 0 0 empty empty BPM 0 -9 0 10 -262144
-1 -1 9500 1;
#X msg 977 162 \; pd dsp 0 metro 0;
#N canvas 798 45 353 215 GeneralBang 0;
#X text 117 70 BPM numberbox;
#X obj 40 91 tgl 15 0 empty empty empty 17 7 0 10 -262144 -1 -1 1 1
;
#X floatatom 86 70 5 0 0 0 - - -;
#X obj 86 153 bng 15 250 50 0 empty empty empty 17 7 0 10 -262144 -1
-1;
#X msg 86 109 tempo \$1 permin;
#X obj 86 132 metro 1 120 permin;
#X obj 89 33 hsl 128 15 0 1000 0 0 empty empty empty -2 -8 0 10 -262144
-1 -1 0 1;
#X obj 86 173 s GeneralBang;
#X text 23 10 Control BPM by sending 0/1 to GeneralBang variable;
#X obj 40 65 inlet;
#X obj 106 51 inlet;
#X obj 106 90 outlet;
#X obj 241 59 s BPM;
#X connect 1 0 5 0;
#X connect 2 0 4 0;
#X connect 2 0 11 0;
#X connect 3 0 7 0;
#X connect 4 0 5 0;
#X connect 5 0 3 0;
#X connect 6 0 2 0;
#X connect 6 0 12 0;
#X connect 9 0 1 0;
#X connect 10 0 2 0;
#X restore 1160 236 pd GeneralBang;
#X obj 849 11 cnv 15 100 60 empty empty empty 20 12 0 14 -233017 -66577
0;
#X obj 849 79 cnv 15 100 60 empty empty empty 20 12 0 14 -233017 -66577
0;
#X obj 849 147 cnv 15 100 60 empty empty empty 20 12 0 14 -233017 -66577
0;
#X obj 809 464 cnv 15 250 300 empty empty Feature_section 20 12 0 14
-233017 -66577 0;
#X obj 288 12 cnv 15 100 60 empty empty empty 20 12 0 14 -233017 -66577
0;
#X obj 288 80 cnv 15 100 60 empty empty empty 20 12 0 14 -233017 -66577
0;
#X obj 288 148 cnv 15 100 60 empty empty empty 20 12 0 14 -233017 -66577
0;
#X obj 288 216 cnv 15 100 60 empty empty empty 20 12 0 14 -233017 -66577
0;
#X obj 546 464 cnv 15 250 300 empty empty SecStruct_section 20 12 0
14 -233017 -66577 0;
#X obj 21 166 cnv 15 250 600 empty empty Nt_section 20 12 0 14 -233017
-66577 0;
#X obj 284 464 cnv 15 250 300 empty empty Aa_section 20 12 0 14 -233017
-66577 0;
#X obj 39 218 hsl 128 15 0 1 0 0 empty empty Gain -2 -8 0 10 -262144
-1 -1 7300 1;
#X floatatom 36 237 5 0 0 0 - - -;
#X floatatom 36 276 5 0 0 0 - - -;
#X text 21 190 # Substracted Noise patch:;
#N canvas 869 201 545 609 NoiseBandPass 0;
#X obj 184 9 r DNABase;
#X obj 184 51 select A T C G;
#X obj 204 74 bng 15 250 50 0 empty empty empty 17 7 0 10 -262144 -1
-1;
#X obj 184 74 bng 15 250 50 0 empty empty empty 17 7 0 10 -262144 -1
-1;
#X obj 244 74 bng 15 250 50 0 empty empty empty 17 7 0 10 -262144 -1
-1;
#X obj 224 74 bng 15 250 50 0 empty empty empty 17 7 0 10 -262144 -1
-1;
#X obj 184 30 symbol;
#X obj 172 96 350;
#X obj 198 96 400;
#X obj 224 96 450;
#X obj 251 96 500;
#X obj 102 157 env~;
#X floatatom 102 176 5 0 0 0 - - -;
#X obj 144 189 env~;
#X floatatom 143 216 5 0 0 0 - - -;
#X obj 228 148 50;
#X obj 214 224 line~;
#X msg 226 202 0 100;
#X text 271 183 on;
#X text 266 202 off;
#X obj 199 265 *~;
#X msg 214 183 1 100;
#X obj 239 358 env~;
#X floatatom 238 385 5 0 0 0 - - -;
#X obj 300 276 env~;
#X floatatom 299 303 5 0 0 0 - - -;
#X obj 198 325 *~ 1, f 7;
#X obj 144 156 bp~ 400 10;
#X obj 65 91 noise~;
#X msg 65 63 seed 123;
#X obj 292 341 hsl 128 15 0 30 0 0 empty empty Gain -2 -8 0 10 -262144
-1 -1 0 1;
#X obj 242 298 inlet;
#X obj 238 408 outlet;
#X obj 363 100 loadbang;
#X obj 87 420 s~ Mono_NoiseBP;
#X msg 363 121 0;
#X connect 0 0 6 0;
#X connect 1 0 3 0;
#X connect 1 1 2 0;
#X connect 1 2 5 0;
#X connect 1 3 4 0;
#X connect 2 0 8 0;
#X connect 3 0 7 0;
#X connect 4 0 10 0;
#X connect 5 0 9 0;
#X connect 6 0 1 0;
#X connect 7 0 27 1;
#X connect 8 0 27 1;
#X connect 9 0 27 1;
#X connect 10 0 27 1;
#X connect 11 0 12 0;
#X connect 13 0 14 0;
#X connect 15 0 27 2;
#X connect 16 0 20 1;
#X connect 17 0 16 0;
#X connect 20 0 24 0;
#X connect 20 0 26 0;
#X connect 21 0 16 0;
#X connect 22 0 23 0;
#X connect 23 0 32 0;
#X connect 24 0 25 0;
#X connect 26 0 22 0;
#X connect 26 0 34 0;
#X connect 27 0 13 0;
#X connect 27 0 20 0;
#X connect 28 0 27 0;
#X connect 29 0 28 0;
#X connect 30 0 26 1;
#X connect 31 0 26 1;
#X connect 33 0 21 0;
#X connect 33 0 35 0;
#X connect 35 0 26 1;
#X restore 36 256 pd NoiseBandPass;
#X obj 77 360 hsl 80 20 0 1 0 0 empty empty Gain -2 -8 0 10 -262144
-1 -1 0 1;
#X floatatom 127 383 5 0 0 0 - - -;
#N canvas 250 201 511 453 FrequencyBandPass 0;
#X obj 144 4 r DNABase;
#X obj 144 46 select A T C G;
#X obj 164 69 bng 15 250 50 0 empty empty empty 17 7 0 10 -262144 -1
-1;
#X obj 144 69 bng 15 250 50 0 empty empty empty 17 7 0 10 -262144 -1
-1;
#X obj 204 69 bng 15 250 50 0 empty empty empty 17 7 0 10 -262144 -1
-1;
#X obj 184 69 bng 15 250 50 0 empty empty empty 17 7 0 10 -262144 -1
-1;
#X obj 144 25 symbol;
#X obj 132 91 350;
#X obj 158 91 400;
#X obj 184 91 450;
#X obj 211 91 500;
#X obj 49 58 bng 15 250 50 0 empty empty empty 17 7 0 10 -262144 -1
-1;
#X floatatom 49 76 5 0 0 0 - - -;
#X obj 72 111 osc~;
#X obj 283 126 env~;
#X floatatom 283 145 5 0 0 0 - - -;
#X obj 283 175 env~;
#X floatatom 283 197 5 0 0 0 - - -;
#X obj 188 145 50;
#X obj 173 224 line~;
#X msg 185 205 0 100;
#X text 234 186 on;
#X text 229 205 off;
#X obj 158 249 *~;
#X msg 173 186 1 100;
#X obj 286 327 env~;
#X floatatom 286 349 5 0 0 0 - - -;
#X obj 283 264 env~;
#X floatatom 283 285 5 0 0 0 - - -;
#X obj 159 312 *~ 1, f 7;
#X obj 244 304 hsl 128 15 0 30 0 0 empty empty Gain -2 -8 0 10 -262144
-1 -1 0 1;
#X obj 286 370 outlet;
#X obj 22 29 vsl 15 128 100 1500 0 0 empty empty empty 0 -9 0 10 -262144
-1 -1 0 1;
#X obj 198 281 inlet;
#X obj 51 34 inlet;
#X obj 361 50 loadbang;
#X obj 30 370 s~ Mono_FreqBP;
#X obj 104 159 bp~ 400 10;
#X msg 361 71 0;
#X connect 0 0 6 0;
#X connect 1 0 3 0;
#X connect 1 1 2 0;
#X connect 1 2 5 0;
#X connect 1 3 4 0;
#X connect 2 0 8 0;
#X connect 3 0 7 0;
#X connect 4 0 10 0;
#X connect 5 0 9 0;
#X connect 6 0 1 0;
#X connect 7 0 37 1;
#X connect 8 0 37 1;
#X connect 9 0 37 1;
#X connect 10 0 37 1;
#X connect 11 0 12 0;
#X connect 12 0 13 0;
#X connect 13 0 14 0;
#X connect 13 0 37 0;
#X connect 14 0 15 0;
#X connect 16 0 17 0;
#X connect 18 0 37 2;
#X connect 19 0 23 1;
#X connect 20 0 19 0;
#X connect 23 0 27 0;
#X connect 23 0 29 0;
#X connect 24 0 19 0;
#X connect 25 0 26 0;
#X connect 26 0 31 0;
#X connect 27 0 28 0;
#X connect 29 0 25 0;
#X connect 29 0 36 0;
#X connect 30 0 29 1;
#X connect 32 0 12 0;
#X connect 33 0 29 1;
#X connect 34 0 12 0;
#X connect 35 0 24 0;
#X connect 35 0 38 0;
#X connect 37 0 16 0;
#X connect 37 0 23 0;
#X connect 38 0 29 1;
#X restore 36 402 pd FrequencyBandPass;
#X floatatom 36 381 5 0 0 0 - - -;
#X obj 39 331 hsl 128 15 300 1200 0 0 empty empty Hz -2 -8 0 10 -262144
-1 -1 6700 1;
#X obj 39 452 hsl 128 15 0 1 0 0 empty empty Gain -2 -8 0 10 -262144
-1 -1 8400 1;
#X floatatom 36 470 5 0 0 0 - - -;
#X text 20 426 # Crackles:;
#N canvas 155 146 450 371 crackles 0;
#X msg 92 31 @freq 3;
#X msg 188 31 @freq 50;
#X obj 92 60 noise.crackle~;
#X obj 72 115 *~ 1, f 7;
#X obj 139 113 hsl 128 15 0 30 0 0 empty empty Gain -2 -8 0 10 -262144
-1 -1 0 1;
#X obj 111 86 inlet;
#X obj 56 158 s~ CrackleStereoR;
#X obj 176 158 s~ CrackleStereoL;
#X obj 66 203 s~ CrackleMono;
#X obj 310 53 loadbang;
#X msg 310 74 0;
#X connect 0 0 2 0;
#X connect 1 0 2 0;
#X connect 2 0 3 0;
#X connect 3 0 8 0;
#X connect 4 0 3 1;
#X connect 5 0 3 1;
#X connect 9 0 10 0;
#X connect 10 0 3 1;
#X restore 36 490 pd crackles;
#X obj 39 536 hsl 128 15 0 1 0 0 empty empty Gain -2 -8 0 10 -262144
-1 -1 12700 1;
#X floatatom 36 555 5 0 0 0 - - -;
#X text 20 511 # Strereo Bass Generator;
#X text 21 600 # Phasor Bass Generator;
#X obj 39 627 hsl 128 15 0 1 0 0 empty empty Gain -2 -8 0 10 -262144
-1 -1 12700 1;
#X floatatom 36 645 5 0 0 0 - - -;
#N canvas 390 332 915 499 BassLine.pd 0;
#X obj 210 82 osc~ 95;
#X obj 126 53 phasor~ 95;
#X obj 127 94 lop~;
#X msg 148 73 200;
#X obj 257 161 env~;
#X floatatom 257 183 5 0 0 0 - - -;
#X obj 155 201 *~ 1, f 7;
#X obj 223 199 hsl 128 15 0 30 0 0 empty empty Gain -2 -8 0 10 -262144
-1 -1 0 1;
#X obj 194 172 inlet;
#X obj 232 242 line;
#X msg 232 221 0.1 \, 0.9 300;
#X obj 154 138 *~ 0.4;
#X msg 211 56 34;
#X obj 91 472 s~ BassLineMono;
#X obj 156 291 *~;
#X floatatom 428 175 5 0 0 0 - - -;
#X obj 406 39 bng 15 250 50 0 empty empty empty 17 7 0 10 -262144 -1
-1;
#X floatatom 433 94 5 0 0 0 - - -;
#X obj 433 140 line, f 18;
#X msg 433 116 \$1 500;
#X obj 433 23 r GeneralBang;
#X obj 433 52 random 100;
#X obj 433 73 / 60;
#X obj 157 316 bp~ 400 10;
#X floatatom 589 214 5 0 0 0 - - -;
#X obj 566 32 bng 15 250 50 0 empty empty empty 17 7 0 10 -262144 -1
-1;
#X floatatom 594 87 5 0 0 0 - - -;
#X obj 594 179 line, f 18;
#X msg 594 155 \$1 500;
#X obj 594 16 r GeneralBang;
#X obj 594 45 random 100;
#X obj 594 66 / 100;
#X obj 594 109 * 240;
#X obj 178 398 freeverb~;
#X obj 175 441 s~ BassLineStereoR;
#X obj 295 441 s~ BassLineStereoL;
#X msg 44 281 roomsize \$1;
#X msg 31 304 Dry \$1;
#X msg 22 324 Wet \$1;
#X obj 13 162 vsl 15 128 0 1 0 0 empty empty Wet 0 -9 0 10 -262144
-1 -1 0 1;
#X obj 40 148 vsl 15 128 0 1 0 0 empty empty Wet 0 -9 0 10 -262144
-1 -1 0 1;
#X obj 64 139 vsl 15 128 0 1 0 0 empty empty Wet 0 -9 0 10 -262144
-1 -1 0 1;
#X obj 594 132 + 20;
#X obj 312 9 loadbang;
#X msg 312 30 0;
#X connect 0 0 11 0;
#X connect 1 0 2 0;
#X connect 2 0 11 0;
#X connect 3 0 2 1;
#X connect 4 0 5 0;
#X connect 6 0 14 0;
#X connect 7 0 6 1;
#X connect 8 0 6 1;
#X connect 10 0 9 0;
#X connect 11 0 6 0;
#X connect 11 0 4 0;
#X connect 12 0 0 0;
#X connect 14 0 23 0;
#X connect 15 0 14 1;
#X connect 16 0 21 0;
#X connect 17 0 19 0;
#X connect 18 0 15 0;
#X connect 19 0 18 0;
#X connect 20 0 21 0;
#X connect 21 0 22 0;
#X connect 22 0 17 0;
#X connect 23 0 34 0;
#X connect 23 0 35 0;
#X connect 24 0 23 1;
#X connect 25 0 30 0;
#X connect 26 0 32 0;
#X connect 27 0 24 0;
#X connect 28 0 27 0;
#X connect 29 0 30 0;
#X connect 30 0 31 0;
#X connect 31 0 26 0;
#X connect 32 0 42 0;
#X connect 33 0 34 0;
#X connect 33 1 35 0;
#X connect 36 0 33 0;
#X connect 37 0 33 0;
#X connect 38 0 33 0;
#X connect 39 0 38 0;
#X connect 40 0 37 0;
#X connect 41 0 36 0;
#X connect 42 0 28 0;
#X connect 43 0 44 0;
#X connect 44 0 6 1;
#X restore 111 740 pd BassLine.pd;
#X obj 114 700 hsl 128 15 0 1 0 0 empty empty Gain -2 -8 0 10 -262144
-1 -1 12700 1;
#X floatatom 111 720 5 0 0 0 - - -;
#X text 20 304 # Bandwidthed osc:;
#N canvas 446 50 854 609 StereoBassGenerator 0;
#X obj 115 294 *~;
#X obj 217 308 env~;
#X floatatom 217 330 5 0 0 0 - - -;
#X obj 115 348 *~ 1, f 7;
#X obj 604 45 inlet;
#X obj 124 470 s~ LBass;
#X obj 184 470 s~ RBass;
#X obj 192 389 line;
#X obj 130 224 *~;
#X obj 115 245 +~;
#X floatatom 84 214 5 0 0 0 - - -;
#X obj 115 268 osc~;
#X floatatom 145 204 5 0 0 0 - - -;
#X obj 129 163 osc~ 46;
#X obj 91 72 t b b b b;
#X obj 165 493 dac~;
#X obj 192 260 line~;
#X msg 211 239 0 100;
#X msg 192 218 0.4 100;
#X msg 82 187 82;
#X msg 146 185 46;
#X msg 142 112 7;
#X msg 192 368 0.1 \, 0.9 300;
#X obj 115 410 pan-controller;
#X obj 337 294 *~;
#X obj 439 308 env~;
#X floatatom 439 330 5 0 0 0 - - -;
#X obj 337 348 *~ 1, f 7;
#X obj 346 470 s~ LBass;
#X obj 406 470 s~ RBass;
#X obj 414 389 line;
#X obj 163 7 r GeneralBang;
#X obj 352 224 *~;
#X obj 337 245 +~;
#X floatatom 306 214 5 0 0 0 - - -;
#X obj 337 268 osc~;
#X floatatom 367 204 5 0 0 0 - - -;
#X obj 351 163 osc~ 46;
#X obj 313 72 t b b b b;
#X obj 387 493 dac~;
#X obj 414 260 line~;
#X msg 433 239 0 100;
#X msg 414 218 0.4 100;
#X msg 304 187 82;
#X msg 368 185 46;
#X msg 364 112 7;
#X obj 337 410 pan-controller;
#X msg 414 368 0.9 \, 0.1 300;
#X obj 163 28 delay 150;
#X obj 675 38 loadbang;
#X msg 675 59 0;
#X connect 0 0 1 0;
#X connect 0 0 3 0;
#X connect 1 0 2 0;
#X connect 3 0 23 0;
#X connect 4 0 3 1;
#X connect 4 0 27 1;
#X connect 7 0 23 1;
#X connect 8 0 9 1;
#X connect 9 0 11 0;
#X connect 10 0 9 0;
#X connect 11 0 0 0;
#X connect 12 0 8 1;
#X connect 13 0 8 0;
#X connect 14 0 22 0;
#X connect 14 1 19 0;
#X connect 14 2 20 0;
#X connect 14 3 21 0;
#X connect 14 3 18 0;
#X connect 16 0 0 1;
#X connect 17 0 16 0;
#X connect 18 0 16 0;
#X connect 19 0 10 0;
#X connect 20 0 12 0;
#X connect 21 0 13 0;
#X connect 22 0 7 0;
#X connect 23 0 5 0;
#X connect 23 1 6 0;
#X connect 24 0 25 0;
#X connect 24 0 27 0;
#X connect 25 0 26 0;
#X connect 27 0 46 0;
#X connect 30 0 46 1;
#X connect 31 0 48 0;
#X connect 31 0 14 0;
#X connect 32 0 33 1;
#X connect 33 0 35 0;
#X connect 34 0 33 0;
#X connect 35 0 24 0;
#X connect 36 0 32 1;
#X connect 37 0 32 0;
#X connect 38 0 47 0;
#X connect 38 1 43 0;
#X connect 38 2 44 0;
#X connect 38 3 45 0;
#X connect 38 3 42 0;
#X connect 40 0 24 1;
#X connect 41 0 40 0;
#X connect 42 0 40 0;
#X connect 43 0 34 0;
#X connect 44 0 36 0;
#X connect 45 0 37 0;
#X connect 46 0 28 0;
#X connect 46 1 29 0;
#X connect 47 0 30 0;
#X connect 48 0 38 0;
#X connect 49 0 50 0;
#X connect 50 0 27 1;
#X connect 50 0 3 1;
#X restore 36 574 pd StereoBassGenerator;
#N canvas 436 318 480 429 PhasorBassGenerator 0;
#X obj 210 82 osc~ 95;
#X obj 126 53 phasor~ 95;
#X obj 127 94 lop~;
#X msg 148 73 200;
#X obj 257 161 env~;
#X floatatom 257 183 5 0 0 0 - - -;
#X obj 155 201 *~ 1, f 7;
#X obj 211 203 hsl 128 15 0 30 0 0 empty empty Gain -2 -8 0 10 -262144
-1 -1 0 1;
#X obj 194 172 inlet;
#X obj 232 242 line;
#X msg 232 221 0.1 \, 0.9 300;
#X obj 158 271 s~ PhasorBassMono;
#X obj 154 138 *~ 0.4;
#X msg 211 56 93;
#X obj 319 60 loadbang;
#X msg 319 82 0;
#X connect 0 0 12 0;
#X connect 1 0 2 0;
#X connect 2 0 12 0;
#X connect 3 0 2 1;
#X connect 4 0 5 0;
#X connect 6 0 11 0;
#X connect 7 0 6 1;
#X connect 8 0 6 1;
#X connect 10 0 9 0;
#X connect 12 0 6 0;
#X connect 12 0 4 0;
#X connect 13 0 0 0;
#X connect 14 0 15 0;
#X connect 15 0 6 1;
#X restore 36 664 pd PhasorBassGenerator;
#X obj 823 560 BassDrop;
#X text 810 495 # Drop for changes:;
#X floatatom 406 66 5 0 0 0 - - -;
#X obj 491 42 r DNABase;
#X obj 491 84 select A T C G;
#X obj 511 107 bng 15 250 50 0 empty empty empty 17 7 0 10 -262144
-1 -1;
#X obj 491 107 bng 15 250 50 0 empty empty empty 17 7 0 10 -262144
-1 -1;
#X obj 551 107 bng 15 250 50 0 empty empty empty 17 7 0 10 -262144
-1 -1;
#X obj 531 107 bng 15 250 50 0 empty empty empty 17 7 0 10 -262144
-1 -1;
#X obj 491 63 symbol;
#X obj 552 42 r ATCGprop;
#X floatatom 552 64 5 0 0 0 - - -;
#X obj 726 42 r NameGeneFeature;
#N canvas 678 139 499 327 readFastaFromBANG 0;
#X obj 159 43 inlet;
#X obj 159 66 bng 15 250 50 0 empty empty empty 17 7 0 10 -262144 -1
-1;
#X text 155 24 Initialize;
#X obj 177 159 textfile;
#X msg 194 117 rewind;
#X obj 159 91 t b b b b;
#X msg 255 145 print;
#X obj 84 143 bng 15 250 50 0 empty empty empty 17 7 0 10 -262144 -1
-1;
#X obj 84 115 r GeneralBang;
#X obj 106 238 s DNABase;
#X obj 256 176 print list;
#X obj 169 238 s ATCGprop;
#X obj 43 238 s BaseNbr;
#X obj 238 238 s NameGeneFeature;
#X obj 177 195 unpack f s f s s s;
#X obj 349 238 s AA;
#X obj 382 238 s SecStruct;
#X msg 243 118 read Genome.tab cr;
#X connect 0 0 1 0;
#X connect 1 0 5 0;
#X connect 3 0 10 0;
#X connect 3 0 14 0;
#X connect 4 0 3 0;
#X connect 5 2 4 0;
#X connect 5 3 17 0;
#X connect 6 0 3 0;
#X connect 7 0 3 0;
#X connect 8 0 7 0;
#X connect 14 0 12 0;
#X connect 14 1 9 0;
#X connect 14 2 11 0;
#X connect 14 3 13 0;
#X connect 14 4 15 0;
#X connect 14 5 16 0;
#X connect 17 0 3 0;
#X restore 975 51 pd readFastaFromBANG;
#N canvas 881 28 250 279 TravelingAcrossDNA 0;
#X obj 49 139 + 1;
#X text 64 65 Start at position:;
#X floatatom 105 195 5 0 0 0 - - -;
#X obj 17 195 s DNAposition;
#X obj 17 139 i;
#X obj 14 238 select Rev For;
#X obj 17 114 bng 15 250 50 0 empty empty empty 17 7 0 10 -262144 -1
-1;
#X obj 17 91 r GeneralBang;
#X text 11 221 [in dev:reverse/forward reading];
#X text 16 10 Send Position on DNA molecules (5' -> 3' \, start at
1);
#X msg 32 66 0;
#X obj 32 43 inlet;
#X connect 0 0 4 1;
#X connect 4 0 0 0;
#X connect 4 0 3 0;
#X connect 4 0 2 0;
#X connect 6 0 4 0;
#X connect 7 0 6 0;
#X connect 10 0 4 1;
#X connect 11 0 10 0;
#X restore 976 93 pd TravelingAcrossDNA;
#N canvas 69 45 824 476 patch2dac 0;
#X obj 248 207 freeverb~;
#X msg 132 110 wet \$1;
#X msg 113 152 dry \$1;
#X msg 92 196 roomsize \$1;
#X obj 393 449 dac~;
#X obj 132 90 r WetGC;
#X obj 113 133 r DryGC;
#X obj 92 176 r RoomsizeGC;
#X obj 218 100 r~ Mono_FreqBP;
#X obj 614 149 r~ Mono_NoiseBP;
#X obj 366 232 inlet;
#X obj 366 275 t b b b b;
#X text 594 91 future On/Off;
#X obj 366 254 select 0 1;
#X obj 429 275 t b b b b;
#X obj 389 343 line~;
#X msg 401 324 0 100;
#X obj 374 362 *~;
#X msg 389 305 1 100;
#X obj 335 343 line~;
#X msg 347 324 0 100;
#X obj 320 362 *~;
#X msg 335 305 1 100;
#X obj 498 343 line~;
#X msg 510 324 0 100;
#X obj 483 362 *~;
#X msg 498 305 1 100;
#X obj 444 343 line~;
#X msg 456 324 0 100;
#X obj 429 362 *~;
#X msg 444 305 1 100;
#X obj 143 257 r~ LBass;
#X obj 149 225 r~ RBass;
#X obj 249 286 +~;
#X obj 300 286 +~;
#X obj 320 101 r~ PhasorBassMono;
#X obj 337 143 r~ BassLineMono;
#X obj 160 337 r~ BassLineStereoR;
#X obj 141 408 r~ BassLineStereoL;
#X obj 249 314 +~;
#X obj 300 316 +~;
#X obj 272 4 r~ CrackleMono;
#X connect 0 0 33 0;
#X connect 0 1 34 0;
#X connect 1 0 0 0;
#X connect 2 0 0 0;
#X connect 3 0 0 0;
#X connect 5 0 1 0;
#X connect 6 0 2 0;
#X connect 7 0 3 0;
#X connect 8 0 0 0;
#X connect 8 0 0 1;
#X connect 9 0 25 0;
#X connect 9 0 29 0;
#X connect 10 0 13 0;
#X connect 11 0 20 0;
#X connect 11 1 16 0;
#X connect 11 2 28 0;
#X connect 11 3 24 0;
#X connect 13 0 11 0;
#X connect 13 1 14 0;
#X connect 14 0 22 0;
#X connect 14 1 18 0;
#X connect 14 2 30 0;
#X connect 14 3 26 0;
#X connect 15 0 17 1;
#X connect 16 0 15 0;
#X connect 17 0 4 1;
#X connect 18 0 15 0;
#X connect 19 0 21 1;
#X connect 20 0 19 0;
#X connect 21 0 4 0;
#X connect 22 0 19 0;
#X connect 23 0 25 1;
#X connect 24 0 23 0;
#X connect 25 0 4 1;
#X connect 26 0 23 0;
#X connect 27 0 29 1;
#X connect 28 0 27 0;
#X connect 29 0 4 0;
#X connect 30 0 27 0;
#X connect 31 0 0 1;
#X connect 32 0 0 0;
#X connect 33 0 39 0;
#X connect 34 0 40 0;
#X connect 35 0 0 0;
#X connect 35 0 0 1;
#X connect 37 0 39 1;
#X connect 38 0 40 1;
#X connect 39 0 21 0;
#X connect 40 0 17 0;
#X connect 41 0 0 0;
#X connect 41 0 0 1;
#X restore 978 253 pd patch2dac;
#X obj 620 42 r AA;
#X obj 653 42 r SecStruct;
#X msg 653 62;
#X msg 620 62;
#X text 432 12 #============== # Basic Visualization # ===============#
;
#X obj 727 66 symbol;
#X floatatom 726 94 5 0 0 0 - - -;
#X obj 406 42 r BaseNbr;
#X obj 1008 397 str-change;
#X obj 1008 419 bng 15 250 50 0 empty empty empty 17 7 0 10 -262144
-1 -1;
#X obj 1008 374 r NameGeneFeature;
#X obj 823 537 str-change;
#X obj 823 514 r NameGeneFeature;
#X text 545 496 # Ambient for changes:;
#X obj 561 515 r SecStruct;
#N canvas 207 276 450 300 AmbientSecStruc 0;
#X obj 34 43 inlet;
#X obj 34 66 select H C E;
#X obj 34 88 bng 15 250 50 0 empty empty empty 17 7 0 10 -262144 -1
-1;
#X obj 57 88 bng 15 250 50 0 empty empty empty 17 7 0 10 -262144 -1
-1;
#X obj 80 88 bng 15 250 50 0 empty empty empty 17 7 0 10 -262144 -1
-1;
#X obj 103 88 bng 15 250 50 0 empty empty empty 17 7 0 10 -262144 -1
-1;
#X connect 0 0 1 0;
#X connect 1 0 2 0;
#X connect 1 1 3 0;
#X connect 1 2 4 0;
#X connect 1 3 5 0;
#X restore 561 559 pd AmbientSecStruc;
#X text 253 339 FaD: 739.99 ->;
#N canvas 205 128 986 504 ClicIf 0;
#X obj 273 23 inlet;
#X obj 273 189 tgl 15 0 empty empty empty 17 7 0 10 -262144 -1 -1 1
1;
#X obj 48 12 r DNABase;
#X obj 48 54 select A T C G;
#X obj 68 77 bng 15 250 50 0 empty empty empty 17 7 0 10 -262144 -1
-1;
#X obj 48 77 bng 15 250 50 0 empty empty empty 17 7 0 10 -262144 -1
-1;
#X obj 108 77 bng 15 250 50 0 empty empty empty 17 7 0 10 -262144 -1
-1;
#X obj 88 77 bng 15 250 50 0 empty empty empty 17 7 0 10 -262144 -1
-1;
#X obj 48 33 symbol;
#X obj 109 12 r ATCGprop;
#X floatatom 109 34 5 0 0 0 - - -;
#X obj 240 217 spigot;
#X obj 48 103 1;
#X obj 16 126 +;
#X floatatom 47 126 5 0 0 0 - - -;
#X obj 47 145 moses 20;
#X obj 177 36 / 60;
#X floatatom 177 82 5 0 0 0 - - -;
#X obj 177 12 r Bpm;
#X obj 92 166 bng 15 250 50 0 empty empty empty 17 7 0 10 -262144 -1
-1;
#X obj 92 186 0;
#X obj 240 342 line;
#X obj 267 319 0 800;
#X obj 267 297 delay 20;
#X obj 240 253 t b b;
#X obj 114 401 *~ 1;
#X obj 144 425 env~;
#X floatatom 144 446 5 0 0 0 - - -;
#X obj 240 236 bng 15 250 50 0 empty empty empty 17 7 0 10 -262144
-1 -1;
#X obj 38 458 dac~;
#X obj 114 352 osc~ 739.9;
#X obj 114 328 line;
#X obj 174 314 30 75;
#X obj 239 188 bng 15 250 50 0 empty empty empty 17 7 0 10 -262144
-1 -1;
#X floatatom 314 226 5 0 0 0 - - -;
#X obj 240 277 0.6 25;
#X obj 177 61 * 2;
#X obj 313 250 s click;
#X msg 114 292 739.9 10;
#X obj 174 292 delay 80;
#X obj 446 308 RandomHyperSaw;
#X obj 445 188 r ClickFreq;
#X floatatom 446 289 5 0 0 0 - - -;
#X obj 525 48 bng 15 250 50 0 empty empty empty 17 7 0 10 -262144 -1
-1;
#X obj 525 27 loadbang;
#X obj 560 359 line;
#X obj 385 367 *~ 1;
#X obj 415 391 env~;
#X floatatom 415 412 5 0 0 0 - - -;
#X obj 557 239 t b b b;
#X obj 664 281 delay 1000;
#X obj 445 209 bng 15 250 50 0 empty empty empty 17 7 0 10 -262144
-1 -1;
#X msg 560 265 1 1000;
#X obj 672 156 BrownianWalk;
#X msg 672 134 1 0.2;
#X obj 92 227 bng 15 250 50 0 empty empty empty 17 7 0 10 -262144 -1
-1;
#X obj 672 205 scaling 0.2 0.6;
#X msg 568 303 0 1000;
#X obj 631 322 spigot;
#X obj 664 303 tgl 15 0 empty empty empty 17 7 0 10 -262144 -1 -1 0
1;
#X obj 568 283 t b b;
#X obj 47 206 moses 19;
#X connect 0 0 1 0;
#X connect 1 0 11 1;
#X connect 2 0 8 0;
#X connect 3 0 5 0;
#X connect 3 1 4 0;
#X connect 3 2 7 0;
#X connect 3 3 6 0;
#X connect 5 0 12 0;
#X connect 8 0 3 0;
#X connect 9 0 10 0;
#X connect 11 0 28 0;
#X connect 11 0 34 0;
#X connect 11 0 37 0;
#X connect 11 0 43 0;
#X connect 12 0 13 0;
#X connect 13 0 14 0;
#X connect 14 0 13 1;
#X connect 14 0 15 0;
#X connect 15 0 61 0;
#X connect 15 1 19 0;
#X connect 15 1 11 0;
#X connect 16 0 36 0;
#X connect 17 0 15 1;
#X connect 18 0 16 0;
#X connect 19 0 20 0;
#X connect 20 0 13 1;
#X connect 21 0 25 1;
#X connect 22 0 21 0;
#X connect 23 0 22 0;
#X connect 24 0 35 0;
#X connect 24 0 39 0;
#X connect 24 1 23 0;
#X connect 24 1 38 0;
#X connect 25 0 26 0;
#X connect 25 0 29 0;
#X connect 25 0 29 1;
#X connect 26 0 27 0;
#X connect 28 0 24 0;
#X connect 30 0 25 0;
#X connect 31 0 30 0;
#X connect 32 0 31 0;
#X connect 33 0 11 0;
#X connect 35 0 21 0;
#X connect 36 0 17 0;
#X connect 38 0 31 0;
#X connect 39 0 32 0;
#X connect 40 0 46 0;
#X connect 41 0 51 0;
#X connect 41 0 42 0;
#X connect 42 0 40 0;
#X connect 43 0 54 0;
#X connect 43 0 22 0;
#X connect 43 0 57 0;
#X connect 44 0 43 0;
#X connect 45 0 46 1;
#X connect 46 0 47 0;
#X connect 46 0 29 0;
#X connect 46 0 29 1;
#X connect 47 0 48 0;
#X connect 49 1 50 0;
#X connect 49 2 52 0;
#X connect 50 0 59 0;
#X connect 51 0 49 0;
#X connect 52 0 45 0;
#X connect 53 0 56 0;
#X connect 54 0 53 0;
#X connect 55 0 60 0;
#X connect 56 0 58 0;
#X connect 57 0 45 0;
#X connect 58 0 45 0;
#X connect 59 0 58 1;
#X connect 60 0 57 0;
#X connect 60 1 59 0;
#X connect 61 1 55 0;
#X restore 52 776 pd ClicIf;
#X obj 1160 280 s Bpm;
#N canvas 86 321 678 513 HarmonyController 0;
#X obj 64 50 hradio 15 1 0 3 empty empty empty 0 -8 0 10 -262144 -1
-1 0;
#X obj 64 75 select 0 1 2;
#X obj 65 162 f;
#X obj 94 162 f;
#X msg 80 135 42;
#X obj 123 162 f;
#X msg 109 135 44;
#X msg 138 135 45;
#X obj 208 142 * 12;
#X floatatom 65 192 5 0 0 0 - - -;
#X obj 65 212 +;
#X obj 65 256 mtof;
#X floatatom 65 235 5 0 0 0 - - -;
#X obj 65 278 s GblHarmFreq;
#X msg 208 119 0;
#X obj 322 97 r click;
#X obj 322 117 bng 15 250 50 0 empty empty empty 17 7 0 10 -262144
-1 -1;
#X obj 322 139 1;
#X obj 290 162 +;
#X floatatom 321 162 5 0 0 0 - - -;
#X obj 366 206 bng 15 250 50 0 empty empty empty 17 7 0 10 -262144
-1 -1;
#X obj 366 226 0;
#X obj 450 317 s ClickFreq;
#X obj 321 185 moses 3;
#X obj 449 88 hradio 15 1 0 3 empty empty empty 0 -8 0 10 -262144 -1
-1 2;
#X obj 449 113 select 0 1 2;
#X obj 450 200 f;
#X obj 479 200 f;
#X msg 465 173 42;
#X obj 508 200 f;
#X msg 494 173 44;
#X msg 523 173 45;
#X obj 593 180 * 12;
#X floatatom 450 230 5 0 0 0 - - -;
#X obj 450 250 +;
#X obj 450 294 mtof;
#X floatatom 450 273 5 0 0 0 - - -;
#X obj 449 55 - 1;
#X obj 536 38 loadbang;
#X floatatom 461 382 5 0 0 0 - - -;
#X msg 593 157 -1;
#X connect 0 0 1 0;
#X connect 1 0 2 0;
#X connect 1 1 3 0;
#X connect 1 2 5 0;
#X connect 2 0 9 0;
#X connect 3 0 9 0;
#X connect 4 0 2 1;
#X connect 5 0 9 0;
#X connect 6 0 3 1;
#X connect 7 0 5 1;
#X connect 8 0 10 1;
#X connect 9 0 10 0;
#X connect 10 0 12 0;
#X connect 11 0 13 0;
#X connect 12 0 11 0;
#X connect 14 0 8 0;
#X connect 15 0 16 0;
#X connect 16 0 17 0;
#X connect 17 0 18 0;
#X connect 18 0 19 0;
#X connect 19 0 18 1;
#X connect 19 0 23 0;
#X connect 19 0 37 0;
#X connect 20 0 21 0;
#X connect 21 0 18 1;
#X connect 23 1 20 0;
#X connect 24 0 25 0;
#X connect 25 0 26 0;
#X connect 25 1 27 0;
#X connect 25 2 29 0;
#X connect 26 0 33 0;
#X connect 27 0 33 0;
#X connect 28 0 26 1;
#X connect 29 0 33 0;
#X connect 30 0 27 1;
#X connect 31 0 29 1;
#X connect 32 0 34 1;
#X connect 33 0 34 0;
#X connect 34 0 36 0;
#X connect 35 0 22 0;
#X connect 36 0 35 0;
#X connect 37 0 24 0;
#X connect 38 0 28 0;
#X connect 38 0 30 0;
#X connect 38 0 31 0;
#X connect 40 0 32 0;
#X restore 406 385 pd HarmonyController;
#X obj 161 364 r GblHarmFreq;
#X obj 51 757 tgl 15 0 empty empty empty 17 7 0 10 -262144 -1 -1 1
1;
#X connect 1 0 15 0;
#X connect 2 0 66 0;
#X connect 7 0 87 0;
#X connect 9 0 67 0;
#X connect 11 0 68 0;
#X connect 13 0 15 1;
#X connect 15 0 7 0;
#X connect 27 0 28 0;
#X connect 28 0 31 0;
#X connect 31 0 29 0;
#X connect 32 0 33 0;
#X connect 33 0 34 1;
#X connect 35 0 34 0;
#X connect 36 0 35 0;
#X connect 37 0 38 0;
#X connect 38 0 40 0;
#X connect 41 0 42 0;
#X connect 42 0 51 0;
#X connect 45 0 46 0;
#X connect 46 0 52 0;
#X connect 48 0 49 0;
#X connect 49 0 47 0;
#X connect 56 0 62 0;
#X connect 57 0 59 0;
#X connect 57 1 58 0;
#X connect 57 2 61 0;
#X connect 57 3 60 0;
#X connect 62 0 57 0;
#X connect 63 0 64 0;
#X connect 65 0 74 0;
#X connect 69 0 72 0;
#X connect 70 0 71 0;
#X connect 74 0 75 0;
#X connect 76 0 55 0;
#X connect 77 0 78 0;
#X connect 79 0 77 0;
#X connect 80 0 53 0;
#X connect 81 0 80 0;
#X connect 83 0 84 0;
#X connect 89 0 35 0;
#X connect 90 0 86 0;
