#N canvas 261 140 631 428 10;
#X obj 106 169 expr ($f1*$f2/2)-$f2/4;
#X obj 255 145 f 3.14159;
#X text 322 146 pi;
#X obj 255 121 loadbang;
#X obj 106 143 clip 0 1;
#X obj 106 193 expr (cos($f1)+sin($f1))*(sqrt(2)/2);
#X obj 214 219 expr (cos($f1)-sin($f1))*(sqrt(2)/2);
#X text 246 170 angle;
#X obj 106 281 line~;
#X obj 214 283 line~;
#X obj -107 349 outlet~;
#X obj 4 371 outlet~;
#X obj -107 -5 inlet~;
#X obj -107 315 *~;
#X obj 4 343 *~;
#N canvas 236 434 450 300 init_interpolation_time 0;
#X obj 98 82 f \$1;
#X obj 98 52 loadbang;
#X obj 98 112 sel 0;
#X obj 98 190 outlet;
#X msg 98 144 200;
#X connect 0 0 2 0;
#X connect 1 0 0 0;
#X connect 2 0 4 0;
#X connect 2 1 3 0;
#X connect 4 0 3 0;
#X restore 197 239 pd init_interpolation_time;
#X obj 106 260 pack 0 200;
#X obj 214 261 pack 0 200;
#X text 68 194 right;
#X text 435 219 left;
#X obj 171 58 inlet panorama;
#X text 174 40 0 ... 1;
#X obj 109 120 hsl 75 12 0 1 0 0 empty empty empty -2 -8 0 10 -260818
-1 -1 3700 1;
#X msg 106 80 0.5;
#X obj 106 59 loadbang;
#X text 137 101 PAN;
#X connect 0 0 5 0;
#X connect 0 0 6 0;
#X connect 1 0 0 1;
#X connect 3 0 1 0;
#X connect 4 0 0 0;
#X connect 5 0 16 0;
#X connect 6 0 17 0;
#X connect 8 0 14 1;
#X connect 9 0 13 1;
#X connect 12 0 13 0;
#X connect 12 0 14 0;
#X connect 13 0 10 0;
#X connect 14 0 11 0;
#X connect 15 0 16 1;
#X connect 15 0 17 1;
#X connect 16 0 8 0;
#X connect 17 0 9 0;
#X connect 20 0 22 0;
#X connect 22 0 4 0;
#X connect 23 0 22 0;
#X connect 24 0 23 0;
#X coords 0 -1 1 1 90 35 2 100 100;
