#N canvas 827 367 450 401 10;
#X obj 19 48 cnv 15 400 300 empty empty Storing_n-th_element 20 12
0 14 -233017 -66577 0;
#X obj 214 68 inlet;
#X obj 71 174 list length;
#X floatatom 363 133 5 0 0 0 - - -;
#X obj 257 68 inlet;
#X obj 187 311 list split 1;
#X msg 39 77 Y;
#X obj 220 268 tgl 15 0 empty empty empty 17 7 0 10 -262144 -1 -1 1
1;
#X obj 187 224 spigot;
#X obj 187 290 spigot;
#X obj 220 202 tgl 15 0 empty empty empty 17 7 0 10 -262144 -1 -1 0
1;
#X obj 363 66 loadbang;
#X obj 39 310 print :);
#X msg 363 90 3;
#X obj 71 151 list prepend;
#X floatatom 71 198 5 0 0 0 - - -;
#X obj 39 289 spigot;
#X obj 72 267 tgl 15 0 empty empty empty 17 7 0 10 -262144 -1 -1 0
1;
#X obj 220 181 expr if($f1<$f2 \, 1 \, 0) \;;
#X obj 221 247 expr if($f1>=$f2 \, 1 \, 0) \;;
#X text 211 53 symbol;
#X text 252 53 degree;
#X msg 178 137 list X X X;
#X obj 71 121 pack s;
#X msg 39 99 X;
#X obj 320 325 outlet;
#X text 317 311 list;
#X connect 1 0 23 0;
#X connect 2 0 15 0;
#X connect 3 0 18 1;
#X connect 3 0 19 1;
#X connect 4 0 3 0;
#X connect 5 1 14 1;
#X connect 6 0 23 0;
#X connect 7 0 9 1;
#X connect 8 0 14 1;
#X connect 9 0 5 0;
#X connect 10 0 8 1;
#X connect 11 0 13 0;
#X connect 11 0 22 0;
#X connect 13 0 3 0;
#X connect 14 0 2 0;
#X connect 14 0 8 0;
#X connect 14 0 9 0;
#X connect 14 0 16 0;
#X connect 14 0 25 0;
#X connect 15 0 18 0;
#X connect 15 0 19 0;
#X connect 16 0 12 0;
#X connect 17 0 16 1;
#X connect 18 0 10 0;
#X connect 19 0 7 0;
#X connect 22 0 14 1;
#X connect 23 0 14 0;
#X connect 24 0 23 0;
