#N canvas 125 24 1282 813 10;
#X obj 285 164 hsl 128 15 0 1 0 0 empty empty Parameter_B -2 -8 0 10
-262144 -1 -1 7200 1;
#X obj 429 164 hsl 128 15 0 1 0 0 empty empty Parameter_C -2 -8 0 10
-262144 -1 -1 5500 1;
#X obj 573 164 hsl 128 15 0 1 0 0 empty empty Parameter_D -2 -8 0 10
-262144 -1 -1 6300 1;
#X obj 140 164 hsl 128 15 0 1 0 0 empty empty Parameter_A -2 -8 0 10
-262144 -1 -1 0 1;
#X obj 719 164 hsl 128 15 0 1 0 0 empty empty Parameter_E -2 -8 0 10
-262144 -1 -1 0 1;
#X obj 714 231 + 0;
#X obj 444 441 phasor~;
#X obj 444 463 *~ 2;
#X obj 444 484 -~ 1;
#X obj 447 400 hsl 128 15 0 1000 0 0 empty empty empty -2 -8 0 10 -262144
-1 -1 0 1;
#X obj 626 555 phasor~;
#X obj 626 577 *~ 2;
#X obj 626 597 -~ 1;
#X obj 688 556 phasor~;
#X obj 688 577 *~ 2;
#X obj 688 596 -~ 1;
#X obj 750 556 phasor~;
#X obj 750 577 *~ 2;
#X obj 750 598 -~ 1;
#X floatatom 639 537 5 0 0 0 - - -;
#X floatatom 699 537 5 0 0 0 - - -;
#X floatatom 750 536 5 0 0 0 - - -;
#X obj 629 519 +, f 4;
#X obj 688 517 +, f 4;
#X obj 750 515 +, f 4;
#X obj 657 351 vsl 15 128 -100 100 0 0 empty empty empty 0 -9 0 10
-262144 -1 -1 6361 1;
#X obj 629 494 t b f;
#X obj 688 494 t b f;
#X obj 750 494 t b f;
#X floatatom 444 420 5 0 0 0 - - -;
#X obj 688 350 vsl 15 128 -100 100 0 0 empty empty empty 0 -9 0 10
-262144 -1 -1 6389 1;
#X obj 750 351 vsl 15 128 -100 100 0 0 empty empty empty 0 -9 0 10
-262144 -1 -1 6361 1;
#X floatatom 583 444 5 0 0 0 - - -;
#X obj 584 423 +, f 4;
#X obj 584 400 t b f;
#X obj 587 355 hsl 64 15 -10 10 0 0 empty empty empty -2 -8 0 10 -262144
-1 -1 6300 1;
#X obj 584 377 / 1;
#X obj 989 8 loadbang;
#X msg 958 116 0;
#X obj 716 211 * 1000;
#X obj 585 237 - 100;
#X obj 584 216 * 200;
#X obj 425 231 - 100;
#X obj 280 232 - 100;
#X obj 282 211 * 200;
#X obj 425 211 * 200;
#X obj 729 187 inlet;
#X obj 590 192 inlet;
#X obj 435 184 inlet;
#X obj 290 186 inlet;
#X obj 145 188 inlet;
#X obj 989 33 bng 15 250 50 0 empty empty empty 17 7 0 10 -262144 -1
-1;
#X floatatom 134 254 5 0 0 0 - - -;
#X floatatom 279 252 5 0 0 0 - - -;
#X floatatom 423 251 5 0 0 0 - - -;
#X floatatom 595 262 5 0 0 0 - - -;
#X floatatom 714 258 5 0 0 0 - - -;
#X obj 137 211 * 1;
#X obj 136 232 - 0;
#X obj 508 645 *~ 0.2;
#X obj 508 670 outlet~;
#X obj 426 104 rnorm;
#X msg 426 84 0.5;
#X msg 509 84 0.01;
#X obj 282 105 rnorm;
#X msg 282 85 0.5;
#X msg 365 85 0.01;
#X obj 572 103 rnorm;
#X msg 572 83 0.5;
#X msg 655 83 0.01;
#X text 72 124 From OWL Puredata Template;
#X obj 472 47 t b b;
#X connect 0 0 44 0;
#X connect 1 0 45 0;
#X connect 2 0 41 0;
#X connect 3 0 57 0;
#X connect 4 0 39 0;
#X connect 5 0 9 0;
#X connect 5 0 56 0;
#X connect 6 0 7 0;
#X connect 7 0 8 0;
#X connect 8 0 59 0;
#X connect 9 0 6 0;
#X connect 9 0 29 0;
#X connect 9 0 33 0;
#X connect 10 0 11 0;
#X connect 11 0 12 0;
#X connect 12 0 59 0;
#X connect 13 0 14 0;
#X connect 14 0 15 0;
#X connect 15 0 59 0;
#X connect 16 0 17 0;
#X connect 17 0 18 0;
#X connect 18 0 59 0;
#X connect 22 0 10 0;
#X connect 22 0 19 0;
#X connect 23 0 13 0;
#X connect 23 0 20 0;
#X connect 24 0 16 0;
#X connect 24 0 21 0;
#X connect 25 0 26 0;
#X connect 26 0 22 0;
#X connect 26 1 22 1;
#X connect 27 0 23 0;
#X connect 27 1 23 1;
#X connect 28 0 24 0;
#X connect 28 1 24 1;
#X connect 30 0 27 0;
#X connect 31 0 28 0;
#X connect 33 0 32 0;
#X connect 33 0 22 0;
#X connect 33 0 23 0;
#X connect 33 0 24 0;
#X connect 34 0 33 0;
#X connect 34 1 33 1;
#X connect 35 0 36 0;
#X connect 36 0 34 0;
#X connect 37 0 51 0;
#X connect 38 0 25 0;
#X connect 38 0 30 0;
#X connect 38 0 31 0;
#X connect 38 0 35 0;
#X connect 38 0 9 0;
#X connect 39 0 5 0;
#X connect 40 0 31 0;
#X connect 40 0 55 0;
#X connect 41 0 40 0;
#X connect 42 0 30 0;
#X connect 42 0 54 0;
#X connect 43 0 25 0;
#X connect 43 0 53 0;
#X connect 44 0 43 0;
#X connect 45 0 42 0;
#X connect 46 0 39 0;
#X connect 47 0 41 0;
#X connect 48 0 45 0;
#X connect 49 0 44 0;
#X connect 50 0 57 0;
#X connect 51 0 38 0;
#X connect 51 0 71 0;
#X connect 57 0 58 0;
#X connect 58 0 35 0;
#X connect 58 0 52 0;
#X connect 59 0 60 0;
#X connect 61 0 1 0;
#X connect 62 0 61 0;
#X connect 63 0 61 1;
#X connect 64 0 0 0;
#X connect 65 0 64 0;
#X connect 66 0 64 1;
#X connect 67 0 2 0;
#X connect 68 0 67 0;
#X connect 69 0 67 1;
#X connect 71 0 68 0;
#X connect 71 0 62 0;
#X connect 71 0 65 0;
#X connect 71 1 69 0;
#X connect 71 1 63 0;
#X connect 71 1 66 0;
