#N canvas 40 23 976 681 10;
#X obj 217 13 inlet;
#X obj 262 117 random 100;
#X obj 262 94 t b b;
#X obj 262 138 moses 50;
#X obj 263 224 bng 15 250 50 0 empty empty empty 17 7 0 10 -262144
-1 -1;
#X obj 331 116 random 100;
#X obj 331 137 / 100;
#X obj 263 261 +;
#X obj 307 261 -;
#X floatatom 263 242 5 0 0 0 - - -;
#X floatatom 307 242 5 0 0 0 - - -;
#X obj 307 224 bng 15 250 50 0 empty empty empty 17 7 0 10 -262144
-1 -1;
#X floatatom 295 315 5 0 0 0 - - -;
#X obj 261 73 bng 15 250 50 0 empty empty empty 17 7 0 10 -262144 -1
-1;
#X msg 190 236 25;
#X obj 295 339 outlet;
#X obj 331 158 *;
#X obj 307 10 inlet;
#X msg 436 3 1;
#X floatatom 391 3 5 0 0 0 - - -;
#X floatatom 179 119 5 0 0 0 - - -;
#X floatatom 104 119 5 0 0 0 - - -;
#X floatatom 365 27 5 0 0 0 - - -;
#X text 102 104 mean;
#X text 178 105 disp.;
#X text 140 101 RNORM;
#X connect 0 0 9 0;
#X connect 0 0 10 0;
#X connect 0 0 2 0;
#X connect 0 0 21 0;
#X connect 1 0 3 0;
#X connect 2 0 1 0;
#X connect 2 1 5 0;
#X connect 3 0 4 0;
#X connect 3 1 11 0;
#X connect 4 0 9 0;
#X connect 5 0 6 0;
#X connect 6 0 16 0;
#X connect 7 0 12 0;
#X connect 8 0 12 0;
#X connect 9 0 7 0;
#X connect 10 0 8 0;
#X connect 11 0 10 0;
#X connect 12 0 15 0;
#X connect 13 0 2 0;
#X connect 14 0 9 0;
#X connect 14 0 10 0;
#X connect 16 0 7 1;
#X connect 16 0 8 1;
#X connect 17 0 22 0;
#X connect 18 0 22 0;
#X connect 19 0 22 0;
#X connect 22 0 16 1;
#X connect 22 0 20 0;
#X coords 0 -1 1 1 114 38 2 100 100;
