#N canvas 74 37 299 273 10;
#X obj 38 -183 inlet;
#X obj 38 8 outlet;
#X floatatom 38 -159 5 0 0 0 - - -;
#X floatatom 38 -15 5 0 0 0 - - -;
#X msg 128 -46 0.8;
#X msg 38 -65 0.2;
#X obj 83 -159 unpack f f;
#X obj 83 -183 inlet;
#X floatatom 83 -137 5 0 0 0 - - -;
#X floatatom 140 -137 5 0 0 0 - - -;
#X obj 38 -106 moses \$1;
#X obj 83 -81 moses \$2;
#X connect 0 0 2 0;
#X connect 2 0 10 0;
#X connect 3 0 1 0;
#X connect 4 0 3 0;
#X connect 5 0 3 0;
#X connect 6 0 8 0;
#X connect 6 1 9 0;
#X connect 7 0 6 0;
#X connect 8 0 10 1;
#X connect 9 0 11 1;
#X connect 10 0 5 0;
#X connect 10 1 11 0;
#X connect 11 0 3 0;
#X connect 11 1 4 0;
#X coords 0 546 2 544 85 60 0;
