#N canvas 74 37 746 538 10;
#X obj 332 221 inlet;
#X obj 333 423 outlet;
#X floatatom 332 243 5 0 0 0 - - -;
#X floatatom 333 400 5 0 0 0 - - -;
#X obj 332 263 moses 0.2;
#X obj 383 288 moses 0.8;
#X msg 272 193 0.81;
#X msg 422 323 0.8;
#X msg 271 172 0.9;
#X msg 273 220 0.12;
#X msg 333 350 0.2;
#X msg 415 218 0.9;
#X msg 414 241 0.5;
#X text 505 47 comment;
#X connect 0 0 2 0;
#X connect 2 0 4 0;
#X connect 3 0 1 0;
#X connect 4 0 10 0;
#X connect 4 1 5 0;
#X connect 5 0 3 0;
#X connect 5 1 7 0;
#X connect 6 0 4 0;
#X connect 7 0 3 0;
#X connect 8 0 4 0;
#X connect 9 0 4 0;
#X connect 10 0 3 0;
#X connect 12 0 4 0;
#X coords 0 1076 2 1074 85 60 0;
